<svg width="51" height="51" viewBox="0 0 51 51" fill="none" xmlns="http://www.w3.org/2000/svg">
<g clip-path="url(#clip0_170_678)">
<path d="M43.9997 42.8397C43.6897 43.1597 43.2997 43.3897 42.9897 43.7497C41.6497 45.2897 42.4497 47.3497 40.2897 48.2397C39.1997 48.6897 38.2597 48.1997 37.1497 48.4997C35.9097 48.8397 35.2297 49.8497 33.8497 49.9897C32.9797 50.0797 31.9097 49.8897 31.1097 49.5297C30.4597 49.2297 29.9597 48.6697 29.1897 48.6697C28.0997 48.6697 27.5097 48.9397 26.3397 48.6297C25.9897 48.5397 25.1997 48.1197 24.9697 48.1097C24.6797 48.0997 24.1697 48.2797 23.8397 48.2997C23.3497 48.3397 22.8097 48.2597 22.3297 48.2997C21.5997 48.3597 21.1897 48.9297 20.5897 49.2697C19.6497 49.8197 18.3697 50.1197 17.2897 49.9297C16.2097 49.7397 15.3997 48.8997 14.2397 48.7597C12.9397 48.5997 12.1097 49.3497 10.7197 48.5597C9.16968 47.6797 9.54968 46.0897 8.48968 44.8597C7.70968 43.9597 6.76968 43.7497 6.16968 42.5197C5.44968 41.0397 5.73968 40.1597 5.90968 38.6797C6.02968 37.5897 5.20968 36.7897 4.98968 35.7697C4.83968 35.0497 4.90968 34.2597 4.95968 33.5297C4.44968 32.9897 3.89968 32.4397 3.58968 31.7397C3.27968 31.0397 3.22968 30.3097 2.99968 29.6197C2.71968 28.7897 2.04968 28.5997 1.50968 27.9597C0.669682 26.9797 0.199682 25.7297 0.309682 24.4297C0.369682 23.6197 0.779682 22.9497 0.749682 22.0397C0.709682 20.7097 -0.260318 20.0597 0.089682 18.5397C0.519682 16.6797 2.05968 16.7697 3.04968 15.5797C3.68968 14.8097 3.81968 13.8597 4.42968 13.1197C5.14968 12.2497 6.40968 11.6397 7.51968 11.4797C7.97968 11.4197 8.76968 11.4897 9.15968 11.3597C9.75968 11.1497 10.5497 10.2797 11.1997 9.93966C11.7697 9.64966 12.3597 9.55966 12.9597 9.36966C13.2697 8.80966 13.5797 8.26966 14.0597 7.82966C14.7597 7.18966 15.7797 6.87966 16.1797 5.97966C16.7397 4.71966 16.9097 3.89966 18.1297 3.00966C19.4697 2.02966 20.3097 2.42966 21.6897 1.96966C23.2997 1.42966 23.5497 -0.120339 25.5997 0.00966129C27.0397 0.0996613 27.5097 1.25966 28.6997 1.69966C29.7397 2.08966 30.6797 1.82966 31.6797 2.18966C32.6797 2.54966 33.7297 3.51966 34.2297 4.48966C34.5497 5.10966 34.6097 5.72966 35.1797 6.17966C35.9397 6.77966 36.7197 6.99966 37.3997 7.79966C37.5697 7.99966 38.0797 8.87966 38.1597 8.92966C38.3197 9.03966 39.0897 9.15966 39.3897 9.27966C40.3497 9.64966 40.7197 10.2297 41.4697 10.7897C42.2197 11.3497 42.5897 11.1697 43.4697 11.3097C44.7297 11.5197 46.1197 12.3097 46.7797 13.4197C47.1497 14.0297 47.2497 14.7297 47.6197 15.3497C48.5597 16.9197 50.6397 16.9697 50.6997 19.2097C50.7297 20.3397 49.9697 20.9997 49.8197 21.9897C49.5397 23.8497 50.6397 24.7497 49.5897 26.8597C48.9997 28.0497 48.4597 28.2097 47.5797 29.0097C46.8397 29.6897 46.7497 31.4397 45.9097 32.4997C45.7997 32.6397 45.4597 32.8897 45.4197 33.0197C45.3497 33.2397 45.4997 34.0497 45.4697 34.3997C45.4097 35.2397 45.0197 35.8797 44.8197 36.6497C44.5597 37.6497 44.9297 37.9197 45.0797 38.8197C45.3197 40.2397 44.9897 41.7897 43.9897 42.8497L43.9997 42.8397ZM31.9597 4.51966C30.9397 3.54966 30.4297 3.90966 29.1997 3.71966C27.7997 3.49966 27.2497 3.03966 26.2297 2.21966C25.0397 1.26966 24.6797 2.21966 23.8597 2.87966C23.1997 3.39966 22.1197 3.83966 21.2997 3.96966C20.2597 4.13966 19.7197 3.92966 18.8897 4.76966C18.0597 5.60966 18.0897 6.56966 17.5097 7.41966C16.9597 8.21966 15.9797 8.55966 15.2997 9.17966C15.2497 9.22966 15.0497 9.39966 15.1097 9.45966C17.2497 9.82966 18.8097 11.5697 19.3297 13.6197C21.0797 12.8397 22.9497 12.3797 24.8697 12.2997L23.6697 8.23966C24.1497 7.28966 24.9297 6.49966 25.3997 5.55966L27.3197 8.16966L26.2497 12.3597C28.0697 12.4097 29.8297 12.9697 31.4797 13.6797C31.8397 11.4297 33.5297 9.24966 35.8897 8.94966C35.9097 8.82966 35.8097 8.76966 35.7297 8.69966C35.0797 8.10966 34.1597 7.86966 33.5297 7.11966C32.8097 6.27966 32.8197 5.33966 31.9497 4.50966L31.9597 4.51966ZM36.9097 10.6697C35.2597 10.6297 33.9597 11.7797 33.4697 13.2897C33.3697 13.5897 33.2097 14.2497 33.1997 14.5397C33.1997 14.6297 33.1997 14.6497 33.2597 14.7197C33.3297 14.8197 34.1797 15.3797 34.2897 15.3697C34.4297 15.3497 35.1697 14.9297 35.3297 14.8297C36.6897 13.8997 37.4397 12.2897 36.9197 10.6597L36.9097 10.6697ZM43.1797 22.5697H38.9897C39.3997 24.3997 39.6997 26.3097 39.3697 28.1797C41.3197 28.1397 43.0297 28.7197 44.2497 30.2697C44.3997 30.4697 44.5097 30.6997 44.6497 30.8797C44.6897 30.9297 44.6497 30.9997 44.7897 30.9597C45.1497 30.1297 45.2597 29.1197 45.7497 28.3597C46.3897 27.3697 47.5497 27.0797 48.0597 25.8797C48.5697 24.6797 47.9797 23.9897 47.9497 22.8697C47.9097 21.4997 48.2697 21.0197 48.7397 19.8797C49.2897 18.5397 48.0797 18.3897 47.2897 17.7397C46.7897 17.3197 46.2797 16.6797 45.9597 16.0997C45.2397 14.7897 45.4497 13.8597 43.7397 13.2797C42.9897 13.0297 42.1797 13.1497 41.4297 12.8797C40.4197 12.5097 39.7897 11.5697 38.8697 11.0597C39.2197 13.4597 37.7497 15.7097 35.6597 16.7597C36.8497 18.0997 37.9197 19.6097 38.4997 21.3297L42.1997 19.0697L45.2397 20.0697L43.1897 22.5897L43.1797 22.5697ZM17.6797 14.5597C17.4197 13.4197 16.9297 12.2897 15.8797 11.6797C15.3497 11.3697 14.8297 11.2497 14.2197 11.1597C13.6797 12.9897 14.7597 14.6397 16.3297 15.4897L17.6797 14.5597ZM12.2697 12.7697C12.2397 12.4297 12.2697 11.9897 12.2697 11.6397C12.2697 11.6197 12.3597 11.5497 12.3297 11.4797C11.3697 11.7997 10.7197 12.7397 9.74968 13.0897C8.84968 13.4097 7.88968 13.1397 6.91968 13.5297C5.63968 14.0497 5.69968 14.6697 5.13968 15.7197C4.76968 16.4197 3.99968 17.3297 3.33968 17.7697C2.44968 18.3497 1.46968 18.3897 1.97968 19.7797C2.44968 21.0597 2.69968 21.6597 2.48968 23.0897C2.31968 24.2697 1.78968 24.7697 2.39968 26.0297C3.00968 27.2897 4.19968 27.4697 4.71968 28.9997C4.91968 29.5797 5.09968 31.0897 5.54968 31.4497C5.61968 31.5097 5.59968 31.5397 5.67968 31.4497C5.83968 31.2597 5.96968 30.9497 6.15968 30.7297C7.36968 29.2497 9.44968 28.5797 11.3297 28.8097C11.0497 26.8597 11.1097 24.9297 11.5797 23.0097L7.26968 22.6797C7.10968 22.6297 5.86968 20.6097 5.61968 20.2997C5.54968 20.2097 5.47968 20.1997 5.39968 20.1397L8.49968 19.2397L12.0097 21.6197C12.6497 19.8597 13.6497 18.2297 14.9097 16.8497C14.9397 16.7097 14.4097 16.3997 14.2797 16.2897C13.2697 15.3797 12.4097 14.1497 12.2597 12.7597L12.2697 12.7697ZM15.8897 17.6797C9.14968 24.9997 12.8397 36.9597 22.5397 39.0497C33.0297 41.3097 41.5697 30.6397 36.9597 20.9097C33.0997 12.7697 22.0097 11.0197 15.8797 17.6797H15.8897ZM43.2697 32.4597C43.2197 31.6597 42.3897 30.7897 41.6797 30.4397C41.1797 30.1897 39.5497 29.8097 39.0997 30.0797C38.9297 30.1797 38.6897 31.4097 38.5097 31.6797C39.7597 32.9897 41.6597 33.4397 43.2697 32.4597ZM11.8197 30.7097C10.5997 30.4697 9.22968 30.5897 8.18968 31.3197C7.72968 31.6397 7.16968 32.2597 7.10968 32.8397C8.82968 33.7797 10.9897 32.9397 12.0597 31.4297L11.8197 30.7097ZM22.0097 46.4597C22.3397 46.4297 22.7197 46.4897 23.0497 46.4597L22.3697 45.2197C21.8697 43.9097 21.9497 42.3797 22.3997 41.0597C22.4797 40.8097 22.6597 40.6097 22.6697 40.3497C20.9797 40.1097 19.3497 39.4097 17.8997 38.5297H17.7597L16.5497 42.5997L13.5997 43.7497C13.6297 43.6797 13.6597 43.6297 13.6597 43.5397C13.6197 42.7697 13.4997 41.9797 13.4697 41.1997C13.4397 40.4897 13.6197 40.4497 14.0997 39.9997C14.9397 39.1997 15.9097 38.4997 16.6797 37.6397C15.0597 36.5497 13.8797 34.9297 12.8697 33.2897C11.2897 34.8597 8.83968 35.5797 6.72968 34.6797C6.59968 35.7897 7.60968 36.7597 7.72968 37.8097C7.87968 39.0797 7.28968 39.9797 7.65968 41.2897C7.96968 42.3897 8.74968 42.5597 9.46968 43.2497C9.98968 43.7497 10.5897 44.5397 10.8497 45.2097C11.2097 46.1397 11.0297 47.2497 12.4797 47.0897C13.3697 46.9897 13.7497 46.8097 14.7397 46.9897C16.5597 47.3097 17.2797 48.6897 19.2597 47.8897C20.2697 47.4797 20.7197 46.6097 21.9997 46.4697L22.0097 46.4597ZM43.6497 34.2897C41.6797 35.2997 39.3397 34.8097 37.6997 33.4097C36.7497 35.0497 35.5097 36.4997 34.0097 37.6597L37.3797 40.2097C37.5997 41.2697 37.3597 42.3697 37.5397 43.4197L34.4697 42.4597L32.9397 38.5097C32.8397 38.4397 31.8897 39.0297 31.6997 39.1197C30.7197 39.5897 29.6697 40.0197 28.5997 40.2097C28.7897 40.9497 29.0597 41.6797 29.0997 42.4497C29.1897 44.1497 28.4097 45.8197 27.0897 46.8597C27.1497 46.9497 27.2097 46.9497 27.3097 46.9597C28.1897 47.0597 29.0497 46.7197 30.0097 46.9097C31.0897 47.1297 31.7497 48.0097 32.9297 48.1497C34.2097 48.2897 34.4497 47.7597 35.4097 47.2397C36.0897 46.8697 37.0597 46.5497 37.8297 46.5097C38.5297 46.4797 39.3597 46.8397 39.9097 46.3197C40.3297 45.9297 40.2197 45.3897 40.3397 44.9197C40.5197 44.1697 41.0497 43.1897 41.5497 42.5997C42.3597 41.6497 43.1997 41.5097 43.3397 40.0397C43.4497 38.9197 42.8097 38.0497 42.9097 36.8997C42.9897 36.0097 43.5397 35.1697 43.6597 34.2797L43.6497 34.2897ZM24.7897 40.6097C24.5497 40.6397 24.1797 41.4997 24.0997 41.7497C23.7297 42.8397 23.7397 44.1697 24.3797 45.1597C24.4897 45.3297 25.0197 45.9597 25.2097 45.9497C27.2297 44.8597 27.8097 42.6297 26.6997 40.6397C26.1997 40.5397 25.7097 40.6597 25.2097 40.6797C25.0597 40.6797 24.8997 40.6097 24.7797 40.6297L24.7897 40.6097Z" fill="#9F7422"/>
<path d="M24.4797 19.1197C31.8597 18.4397 35.6397 27.3897 30.0697 32.1497C25.9397 35.6797 19.4297 33.4897 18.1497 28.2597C17.1097 24.0097 20.0797 19.5297 24.4797 19.1297V19.1197ZM24.7397 20.0097C20.2497 20.3797 17.5597 25.1997 19.4797 29.2697C21.6897 33.9397 28.3697 34.2397 30.9397 29.7397C33.5097 25.2397 29.9897 19.5797 24.7397 20.0097Z" fill="#9F7422"/>
<path d="M18.6399 31.9594L17.3799 32.3394L17.6399 32.9294L17.3599 33.0394L16.6899 31.5894L16.1299 31.7794L16.5599 32.8194L15.3099 33.4794L15.2099 33.0994L16.1299 32.6294L15.1299 30.5594L15.3799 30.4194L15.8799 31.4594L16.4199 31.2094C16.5199 31.0594 15.7799 29.9994 15.7599 29.7794C15.7499 29.6594 15.9599 29.5694 16.0699 29.5694C16.1899 29.8894 17.0499 31.8394 17.1999 31.9394C17.3899 32.0594 17.9599 31.6894 18.2099 31.7194L17.1499 29.5494L17.4199 29.3994L18.6599 31.9794L18.6399 31.9594Z" fill="#9F7422"/>
<path d="M26.6994 16.8397L26.5694 17.2197L28.5194 17.5997L28.5894 17.2897L29.0294 17.3497L28.6494 18.8597C28.3994 18.9197 28.2994 18.6997 28.1494 18.6397C27.9494 18.5597 26.6594 18.2497 26.4594 18.2397C26.2994 18.2397 26.1194 18.4297 25.8994 18.2397L26.1894 16.7197L26.6894 16.8497L26.6994 16.8397ZM28.3994 17.9097L26.4494 17.5297L26.3794 17.8697L28.3094 18.3397C28.4294 18.3197 28.4094 18.0097 28.3994 17.9097Z" fill="#9F7422"/>
<path d="M36.2197 27.6093L35.8696 27.6693C35.6196 28.8593 34.6396 28.6493 34.6396 27.4493C34.6396 26.2493 35.6296 26.0693 35.8496 27.2193H36.2197L36.0896 26.0293H36.4697L36.5296 28.3893L36.6596 28.7293L36.2197 28.7893V27.5893V27.6093ZM35.0896 28.0393C35.5896 28.3493 35.6896 26.9893 35.2796 26.8793C34.8896 26.7793 34.8796 27.9093 35.0896 28.0393Z" fill="#9F7422"/>
<path d="M26.5796 15.1292L27.6396 15.3892L27.7696 14.7592L28.2096 14.9192L27.7696 16.7792L25.8896 16.3292L26.2596 14.4492L26.6996 14.6092L26.5796 15.1292ZM27.5096 15.7092L26.4496 15.4492L26.3296 16.0392C26.3596 16.1692 27.2696 16.3092 27.4596 16.3292L27.5196 15.7092H27.5096Z" fill="#9F7422"/>
<path d="M35.6494 33.1592L34.3994 32.5592L34.5194 32.2192L34.8994 32.3492L35.5894 30.6492L35.3394 30.5792L35.4994 30.1992L36.7194 30.8092C36.7194 31.0692 36.4994 31.1292 36.3994 31.2992C36.2694 31.5092 35.8494 32.3892 35.7694 32.6292C35.7194 32.7792 35.7794 32.9992 35.6594 33.1692L35.6494 33.1592ZM36.2194 30.9592L35.9394 30.8292C35.7594 31.3092 35.2994 31.9192 35.1794 32.3992C35.1294 32.5992 35.2894 32.6192 35.4594 32.5792L36.2194 30.9492V30.9592Z" fill="#9F7422"/>
<path d="M22.9798 14.8193L23.0398 15.1293L21.3398 15.5093L21.6598 16.8993L23.5798 16.2693C23.7098 16.2393 23.7598 16.5193 23.7098 16.5893C23.6198 16.7093 21.6398 17.2593 21.3398 17.3193L20.8398 15.3293L22.9798 14.8193Z" fill="#9F7422"/>
<path d="M31.4798 16.2799C31.8898 16.2399 32.4098 16.5499 32.5798 16.9199C33.1298 18.1099 31.4398 19.1599 30.6498 17.9699C30.2098 17.3099 30.7498 16.3599 31.4798 16.2899V16.2799ZM31.5998 16.6599C30.4698 16.7799 30.7998 18.6399 31.8298 18.0299C32.5498 17.5999 32.3698 16.5799 31.5998 16.6599Z" fill="#9F7422"/>
<path d="M17.5599 17.7192C17.9499 18.6392 19.0899 18.9892 20.0199 19.0392L19.9499 19.4092C19.3599 19.4192 18.7899 19.2292 18.2599 18.9792C18.4099 19.6192 18.4999 20.2192 18.3899 20.8692H18.0099C18.1199 20.1592 18.0499 19.4392 17.7299 18.7892C17.6399 18.5992 17.1299 18.0292 17.1999 17.9192C17.2099 17.8992 17.5399 17.6992 17.5699 17.7192H17.5599Z" fill="#9F7422"/>
<path d="M28.8399 35.05L28.8999 35.36L27.6999 35.64C28.0599 36.01 28.6799 35.84 29.1499 35.8C29.0499 36.51 27.8699 36.01 27.5499 36.07C27.4899 36.08 26.9599 36.5 26.7999 36.57C26.4799 36.72 26.1899 36.83 25.8799 36.62L27.0499 36.05C27.1299 35.94 27.3599 35.71 27.0699 35.76C26.7399 35.82 26.3899 35.96 26.0499 35.99L25.9499 35.67L28.8499 35.04L28.8399 35.05Z" fill="#9F7422"/>
<path d="M28.1995 37.1496C29.6795 36.9896 29.8095 38.0895 28.4595 38.5495C26.1395 39.3295 25.8595 37.3996 28.1995 37.1496ZM26.9595 38.2595C27.1895 38.6295 29.1195 38.2096 28.9995 37.6996C28.8695 37.0996 26.6395 37.7395 26.9595 38.2595Z" fill="#9F7422"/>
<path d="M30.3395 33.6792C31.3295 33.4992 32.0595 34.8692 31.1395 35.5592C30.0795 36.3492 28.7595 34.6792 29.9495 33.8692C30.0695 33.7892 30.1895 33.7092 30.3295 33.6892L30.3395 33.6792ZM30.8995 34.1892C30.2295 33.6192 29.3195 34.6192 30.2295 35.2692C30.9995 35.8192 31.5495 34.7392 30.8995 34.1892Z" fill="#9F7422"/>
<path d="M18.8895 16.21C18.8895 16.29 18.9095 16.36 18.9495 16.43C19.2295 16.84 19.6795 17.25 19.9895 17.66L20.3995 17.31C20.7595 17.45 20.4695 17.79 20.2095 17.85L21.3395 19.27L21.0495 19.55L18.4395 16.5L18.8795 16.22L18.8895 16.21Z" fill="#9F7422"/>
<path d="M31.6797 32.3994L33.3797 34.5694C32.9597 35.1094 32.7997 34.3394 32.4697 34.0994C32.2197 34.2894 31.8697 34.8094 31.7697 34.2894L32.2397 33.8694L31.8997 33.4094L31.3997 33.8494L31.1797 33.6294L31.6797 33.1794L31.3097 32.5894L31.6897 32.3994H31.6797Z" fill="#9F7422"/>
<path d="M24.0599 14.3799L24.3799 15.8899L24.9099 15.7699C25.0199 15.7999 25.0599 16.0299 24.9799 16.0899L24.5199 16.2099L24.7599 17.3099L24.3599 17.4699L23.6299 14.4799L24.0799 14.3799H24.0599Z" fill="#9F7422"/>
<path d="M33.51 25.9097V25.4697C34.74 25.6397 36 25.4697 37.23 25.4997C37.35 25.5797 37.29 25.9097 37.19 25.9097H33.5H33.51Z" fill="#9F7422"/>
<path d="M22.3998 34.8799C22.8798 34.7599 23.8498 34.9499 23.9198 35.5399C24.0398 36.5599 21.9198 36.2999 21.9798 35.4099C21.9898 35.1899 22.1898 34.9399 22.3998 34.8799ZM22.5898 35.1899C22.1598 35.3199 22.4798 35.8099 22.8998 35.8599C24.0298 36.0199 23.4498 34.9199 22.5898 35.1899Z" fill="#9F7422"/>
<path d="M15.4 25.5498C16.53 25.2898 16.5 27.1898 15.81 27.3498C14.65 27.6098 14.67 25.7198 15.4 25.5498ZM15.47 25.9198C15.14 26.0198 15.09 27.0298 15.64 26.9798C16.22 26.9298 16.03 25.7498 15.47 25.9198Z" fill="#9F7422"/>
<path d="M24.4994 38.0094L24.0494 37.9494L24.0894 37.5694L23.3694 37.3694L23.3594 37.0694L24.2394 37.2594L24.6894 35.1094L25.0594 35.2794L24.4994 38.0094Z" fill="#9F7422"/>
<path d="M27.8999 36.3098V36.7498C27.9599 36.8098 29.1999 36.3498 29.4399 36.3698C29.4899 36.3698 29.5399 36.3798 29.5699 36.4298L29.5999 36.6798L25.9499 37.4898L25.8799 37.1798L27.4599 36.8298L27.5099 36.7198L27.3999 36.3598L27.8999 36.2998V36.3098Z" fill="#9F7422"/>
<path d="M14.3496 28.5601V28.1801L17.3096 28.1201V28.5601H15.7996C15.7896 28.8301 15.9196 29.3801 15.4896 29.0201V28.5601H14.3496Z" fill="#9F7422"/>
<path d="M22.3502 17.5898L22.5202 18.3498L25.0002 17.7798V18.0598L22.2002 18.7898L21.9102 17.6898L22.3502 17.5898Z" fill="#9F7422"/>
<path d="M32.05 20.7496C32.09 20.8096 31.95 21.0796 31.84 21.0496L29.62 19.2896C29.53 19.1196 30.17 18.5596 30.23 18.3496C30.94 18.4496 30.35 18.8896 30.1 19.1896L32.05 20.7396V20.7496Z" fill="#9F7422"/>
<path d="M33.8695 30.9699C35.0995 30.7199 34.4795 32.8199 33.6195 32.7099C32.8195 32.6099 33.1895 31.1099 33.8695 30.9699ZM33.7695 31.3499C33.5795 31.4599 33.3095 32.2299 33.6595 32.2799C34.1295 32.3499 34.3795 31.5299 34.1295 31.3599C34.0595 31.3199 33.8295 31.2999 33.7595 31.3499H33.7695Z" fill="#9F7422"/>
<path d="M19.4295 33.8696C20.1195 34.6696 19.2495 35.4096 18.3795 34.6396C17.3595 33.7396 18.5695 32.8896 19.4295 33.8696ZM18.5495 33.7996C17.9595 33.9696 19.0395 35.1096 19.3195 34.3896C19.2795 34.0796 18.8595 33.7096 18.5495 33.7996Z" fill="#9F7422"/>
<path d="M34.1995 18.0896L32.3495 20.2996L32.2295 20.3496L31.9395 20.1596L33.8895 17.7296C33.9695 17.6996 34.2495 17.9996 34.1995 18.0696V18.0896Z" fill="#9F7422"/>
<path d="M19.4499 36.1897L17.5899 34.7997C17.5399 34.7097 17.7399 34.4497 17.8799 34.5797L19.9599 36.2197C19.9799 36.2797 19.3899 37.0697 19.3099 37.1297C19.1199 37.2797 19.0299 37.0997 18.8999 36.9697L19.4599 36.1797L19.4499 36.1897Z" fill="#9F7422"/>
<path d="M29.5398 14.9495L29.0298 17.2195L28.6598 17.1495L28.7698 16.2095L28.0898 16.0795V15.6995L28.9098 15.8895L29.1298 14.9395L29.5398 14.9495Z" fill="#9F7422"/>
<path d="M31.4901 35.8098L31.9601 36.4298L33.7001 35.0198C34.1001 34.9598 33.9501 35.2098 33.7601 35.3998C33.2101 35.9398 32.4201 36.4098 31.8401 36.9398L31.1201 36.0998L31.5001 35.8198L31.4901 35.8098Z" fill="#9F7422"/>
<path d="M14.7296 25.8498V26.2898H13.9096V28.3998C13.9096 28.5698 14.0996 28.6998 13.6596 28.6798L13.5996 25.8398H14.7296V25.8498Z" fill="#9F7422"/>
<path d="M22.2902 37.2595L22.1102 37.9295L22.1602 38.0395L24.4302 38.5095C24.4502 38.6995 24.4502 38.8295 24.2302 38.8095C23.4402 38.7395 22.4802 38.3095 21.6602 38.2595L21.8502 37.1895L22.2902 37.2495V37.2595Z" fill="#9F7422"/>
<path d="M23.9802 36.8701L22.8502 36.7501L22.7602 37.3801H22.3502L22.4802 36.6201L21.4102 36.5601L21.4702 36.1201L23.9502 36.5701C24.1102 36.6101 24.0002 36.7401 23.9902 36.8601L23.9802 36.8701Z" fill="#9F7422"/>
<path d="M33.4395 29.1294C33.4395 29.2794 34.0595 29.5594 34.1695 29.5694C34.4695 29.5894 34.3895 29.2394 34.5095 29.1494L34.7595 29.1894L34.5795 29.7194L35.2395 30.0594L35.1395 30.4394L33.1895 29.5494L33.3095 29.1494L33.4395 29.1094V29.1294Z" fill="#9F7422"/>
<path d="M20.9094 35.1698L21.2794 35.4698L21.1594 35.6498L20.6894 35.3698L20.2394 35.9298L19.8994 35.7098L21.2394 34.0498L21.5294 34.3198L20.9094 35.1698Z" fill="#9F7422"/>
<path d="M16.5399 22.0194C17.0199 22.5794 16.0899 23.3794 15.6499 22.6894C15.2499 22.0794 16.1399 21.5394 16.5399 22.0194Z" fill="#9F7422"/>
<path d="M35.0693 22.6197C34.6193 23.0697 33.8293 22.4697 34.1993 21.9097C34.6493 21.2297 35.6093 22.0797 35.0693 22.6197Z" fill="#9F7422"/>
<path d="M34.5199 28.6893H34.1999L34.1299 26.3893C34.1299 26.2093 34.3999 26.1693 34.4799 26.2893L34.5099 28.6893H34.5199Z" fill="#9F7422"/>
<path d="M16.7399 27.6797H16.4199V25.2197L16.6799 25.2497C16.6799 25.2497 16.7399 25.4797 16.7399 25.4997V27.6697V27.6797Z" fill="#9F7422"/>
<path d="M32.6892 32.5298L32.4692 32.3998L32.4492 32.2598L33.4092 30.2598L33.6092 30.3898L33.6292 30.5298L32.6892 32.5298Z" fill="#9F7422"/>
<path d="M18.5993 32.6692C18.7093 32.6692 20.1293 33.7992 20.2693 33.9492C20.4393 34.1192 20.4293 34.1492 20.2293 34.2892C19.7493 33.8692 18.9993 33.4492 18.5693 32.9992C18.4393 32.8592 18.4293 32.6692 18.5993 32.6592V32.6692Z" fill="#9F7422"/>
<path d="M27.8292 34.7393L27.8992 35.0493L26.7692 35.2993L26.6992 34.9893L27.8292 34.7393Z" fill="#9F7422"/>
<path d="M17.2497 25.8496V27.0496L16.9297 26.9796V25.8496H17.2497Z" fill="#9F7422"/>
<path d="M33.9499 26.9199V28.0599L33.7399 28.0499L33.6299 27.9599V26.9199H33.9499Z" fill="#9F7422"/>
<path d="M20.1492 33.5399C20.1492 33.5399 20.0192 33.5299 19.9892 33.4799L19.1992 32.8199L19.4092 32.6699L20.2392 33.2899L20.1392 33.5399H20.1492Z" fill="#9F7422"/>
<path d="M32.9397 30.6996L32.4997 31.7696L32.1797 31.6496L32.6297 30.6396L32.9397 30.6996Z" fill="#9F7422"/>
<path d="M30.1093 24.46C30.2793 24.63 29.8393 26.37 29.9293 26.63C29.9993 26.83 30.5593 26.7 30.7393 26.73V27.11H28.4693V29.35C28.3593 29.5 27.8993 29.51 27.8993 29.29V27.12H25.7293C25.5993 27.12 25.5993 26.74 25.7293 26.74H29.2593C29.4993 26.42 29.5793 25.68 29.6093 25.26C29.6093 25.12 29.6493 24.95 29.5193 24.85H26.2693V24.47H30.1093V24.46Z" fill="#9F7422"/>
<path d="M23.6094 26.1598C23.8394 26.1298 24.1394 26.2398 24.2994 26.0698V24.2698H24.7994V29.3398C24.6794 29.4898 24.4094 29.4798 24.2994 29.3398V26.6898C24.1294 26.5098 23.8294 26.6198 23.6094 26.5998V29.0898C23.4894 29.2398 23.2194 29.2298 23.1094 29.0898V24.3598C23.2194 24.2198 23.4894 24.2098 23.6094 24.3598V26.1598Z" fill="#9F7422"/>
<path d="M22.3898 24.5894C22.3898 24.5894 22.5398 24.6594 22.5498 24.6994L22.4498 25.0394H21.0998V27.6894H22.3898C22.4498 27.6894 22.7598 27.5194 22.7998 27.5594V27.9994C22.7198 28.0794 20.9598 28.1694 20.7498 28.1294C20.6798 28.1194 20.6298 28.0994 20.5898 28.0394V24.6994L20.6798 24.6094C21.1998 24.6694 21.8898 24.5294 22.3798 24.6094L22.3898 24.5894Z" fill="#9F7422"/>
</g>
<defs>
<clipPath id="clip0_170_678">
<rect width="51" height="51" fill="white"/>
</clipPath>
</defs>
</svg>
