<svg width="261" height="51" viewBox="0 0 261 51" fill="none" xmlns="http://www.w3.org/2000/svg">
<g clip-path="url(#clip0_170_678)">
<path d="M43.9997 42.8397C43.6897 43.1597 43.2997 43.3897 42.9897 43.7497C41.6497 45.2897 42.4497 47.3497 40.2897 48.2397C39.1997 48.6897 38.2597 48.1997 37.1497 48.4997C35.9097 48.8397 35.2297 49.8497 33.8497 49.9897C32.9797 50.0797 31.9097 49.8897 31.1097 49.5297C30.4597 49.2297 29.9597 48.6697 29.1897 48.6697C28.0997 48.6697 27.5097 48.9397 26.3397 48.6297C25.9897 48.5397 25.1997 48.1197 24.9697 48.1097C24.6797 48.0997 24.1697 48.2797 23.8397 48.2997C23.3497 48.3397 22.8097 48.2597 22.3297 48.2997C21.5997 48.3597 21.1897 48.9297 20.5897 49.2697C19.6497 49.8197 18.3697 50.1197 17.2897 49.9297C16.2097 49.7397 15.3997 48.8997 14.2397 48.7597C12.9397 48.5997 12.1097 49.3497 10.7197 48.5597C9.16968 47.6797 9.54968 46.0897 8.48968 44.8597C7.70968 43.9597 6.76968 43.7497 6.16968 42.5197C5.44968 41.0397 5.73968 40.1597 5.90968 38.6797C6.02968 37.5897 5.20968 36.7897 4.98968 35.7697C4.83968 35.0497 4.90968 34.2597 4.95968 33.5297C4.44968 32.9897 3.89968 32.4397 3.58968 31.7397C3.27968 31.0397 3.22968 30.3097 2.99968 29.6197C2.71968 28.7897 2.04968 28.5997 1.50968 27.9597C0.669682 26.9797 0.199682 25.7297 0.309682 24.4297C0.369682 23.6197 0.779682 22.9497 0.749682 22.0397C0.709682 20.7097 -0.260318 20.0597 0.089682 18.5397C0.519682 16.6797 2.05968 16.7697 3.04968 15.5797C3.68968 14.8097 3.81968 13.8597 4.42968 13.1197C5.14968 12.2497 6.40968 11.6397 7.51968 11.4797C7.97968 11.4197 8.76968 11.4897 9.15968 11.3597C9.75968 11.1497 10.5497 10.2797 11.1997 9.93966C11.7697 9.64966 12.3597 9.55966 12.9597 9.36966C13.2697 8.80966 13.5797 8.26966 14.0597 7.82966C14.7597 7.18966 15.7797 6.87966 16.1797 5.97966C16.7397 4.71966 16.9097 3.89966 18.1297 3.00966C19.4697 2.02966 20.3097 2.42966 21.6897 1.96966C23.2997 1.42966 23.5497 -0.120339 25.5997 0.00966129C27.0397 0.0996613 27.5097 1.25966 28.6997 1.69966C29.7397 2.08966 30.6797 1.82966 31.6797 2.18966C32.6797 2.54966 33.7297 3.51966 34.2297 4.48966C34.5497 5.10966 34.6097 5.72966 35.1797 6.17966C35.9397 6.77966 36.7197 6.99966 37.3997 7.79966C37.5697 7.99966 38.0797 8.87966 38.1597 8.92966C38.3197 9.03966 39.0897 9.15966 39.3897 9.27966C40.3497 9.64966 40.7197 10.2297 41.4697 10.7897C42.2197 11.3497 42.5897 11.1697 43.4697 11.3097C44.7297 11.5197 46.1197 12.3097 46.7797 13.4197C47.1497 14.0297 47.2497 14.7297 47.6197 15.3497C48.5597 16.9197 50.6397 16.9697 50.6997 19.2097C50.7297 20.3397 49.9697 20.9997 49.8197 21.9897C49.5397 23.8497 50.6397 24.7497 49.5897 26.8597C48.9997 28.0497 48.4597 28.2097 47.5797 29.0097C46.8397 29.6897 46.7497 31.4397 45.9097 32.4997C45.7997 32.6397 45.4597 32.8897 45.4197 33.0197C45.3497 33.2397 45.4997 34.0497 45.4697 34.3997C45.4097 35.2397 45.0197 35.8797 44.8197 36.6497C44.5597 37.6497 44.9297 37.9197 45.0797 38.8197C45.3197 40.2397 44.9897 41.7897 43.9897 42.8497L43.9997 42.8397ZM31.9597 4.51966C30.9397 3.54966 30.4297 3.90966 29.1997 3.71966C27.7997 3.49966 27.2497 3.03966 26.2297 2.21966C25.0397 1.26966 24.6797 2.21966 23.8597 2.87966C23.1997 3.39966 22.1197 3.83966 21.2997 3.96966C20.2597 4.13966 19.7197 3.92966 18.8897 4.76966C18.0597 5.60966 18.0897 6.56966 17.5097 7.41966C16.9597 8.21966 15.9797 8.55966 15.2997 9.17966C15.2497 9.22966 15.0497 9.39966 15.1097 9.45966C17.2497 9.82966 18.8097 11.5697 19.3297 13.6197C21.0797 12.8397 22.9497 12.3797 24.8697 12.2997L23.6697 8.23966C24.1497 7.28966 24.9297 6.49966 25.3997 5.55966L27.3197 8.16966L26.2497 12.3597C28.0697 12.4097 29.8297 12.9697 31.4797 13.6797C31.8397 11.4297 33.5297 9.24966 35.8897 8.94966C35.9097 8.82966 35.8097 8.76966 35.7297 8.69966C35.0797 8.10966 34.1597 7.86966 33.5297 7.11966C32.8097 6.27966 32.8197 5.33966 31.9497 4.50966L31.9597 4.51966ZM36.9097 10.6697C35.2597 10.6297 33.9597 11.7797 33.4697 13.2897C33.3697 13.5897 33.2097 14.2497 33.1997 14.5397C33.1997 14.6297 33.1997 14.6497 33.2597 14.7197C33.3297 14.8197 34.1797 15.3797 34.2897 15.3697C34.4297 15.3497 35.1697 14.9297 35.3297 14.8297C36.6897 13.8997 37.4397 12.2897 36.9197 10.6597L36.9097 10.6697ZM43.1797 22.5697H38.9897C39.3997 24.3997 39.6997 26.3097 39.3697 28.1797C41.3197 28.1397 43.0297 28.7197 44.2497 30.2697C44.3997 30.4697 44.5097 30.6997 44.6497 30.8797C44.6897 30.9297 44.6497 30.9997 44.7897 30.9597C45.1497 30.1297 45.2597 29.1197 45.7497 28.3597C46.3897 27.3697 47.5497 27.0797 48.0597 25.8797C48.5697 24.6797 47.9797 23.9897 47.9497 22.8697C47.9097 21.4997 48.2697 21.0197 48.7397 19.8797C49.2897 18.5397 48.0797 18.3897 47.2897 17.7397C46.7897 17.3197 46.2797 16.6797 45.9597 16.0997C45.2397 14.7897 45.4497 13.8597 43.7397 13.2797C42.9897 13.0297 42.1797 13.1497 41.4297 12.8797C40.4197 12.5097 39.7897 11.5697 38.8697 11.0597C39.2197 13.4597 37.7497 15.7097 35.6597 16.7597C36.8497 18.0997 37.9197 19.6097 38.4997 21.3297L42.1997 19.0697L45.2397 20.0697L43.1897 22.5897L43.1797 22.5697ZM17.6797 14.5597C17.4197 13.4197 16.9297 12.2897 15.8797 11.6797C15.3497 11.3697 14.8297 11.2497 14.2197 11.1597C13.6797 12.9897 14.7597 14.6397 16.3297 15.4897L17.6797 14.5597ZM12.2697 12.7697C12.2397 12.4297 12.2697 11.9897 12.2697 11.6397C12.2697 11.6197 12.3597 11.5497 12.3297 11.4797C11.3697 11.7997 10.7197 12.7397 9.74968 13.0897C8.84968 13.4097 7.88968 13.1397 6.91968 13.5297C5.63968 14.0497 5.69968 14.6697 5.13968 15.7197C4.76968 16.4197 3.99968 17.3297 3.33968 17.7697C2.44968 18.3497 1.46968 18.3897 1.97968 19.7797C2.44968 21.0597 2.69968 21.6597 2.48968 23.0897C2.31968 24.2697 1.78968 24.7697 2.39968 26.0297C3.00968 27.2897 4.19968 27.4697 4.71968 28.9997C4.91968 29.5797 5.09968 31.0897 5.54968 31.4497C5.61968 31.5097 5.59968 31.5397 5.67968 31.4497C5.83968 31.2597 5.96968 30.9497 6.15968 30.7297C7.36968 29.2497 9.44968 28.5797 11.3297 28.8097C11.0497 26.8597 11.1097 24.9297 11.5797 23.0097L7.26968 22.6797C7.10968 22.6297 5.86968 20.6097 5.61968 20.2997C5.54968 20.2097 5.47968 20.1997 5.39968 20.1397L8.49968 19.2397L12.0097 21.6197C12.6497 19.8597 13.6497 18.2297 14.9097 16.8497C14.9397 16.7097 14.4097 16.3997 14.2797 16.2897C13.2697 15.3797 12.4097 14.1497 12.2597 12.7597L12.2697 12.7697ZM15.8897 17.6797C9.14968 24.9997 12.8397 36.9597 22.5397 39.0497C33.0297 41.3097 41.5697 30.6397 36.9597 20.9097C33.0997 12.7697 22.0097 11.0197 15.8797 17.6797H15.8897ZM43.2697 32.4597C43.2197 31.6597 42.3897 30.7897 41.6797 30.4397C41.1797 30.1897 39.5497 29.8097 39.0997 30.0797C38.9297 30.1797 38.6897 31.4097 38.5097 31.6797C39.7597 32.9897 41.6597 33.4397 43.2697 32.4597ZM11.8197 30.7097C10.5997 30.4697 9.22968 30.5897 8.18968 31.3197C7.72968 31.6397 7.16968 32.2597 7.10968 32.8397C8.82968 33.7797 10.9897 32.9397 12.0597 31.4297L11.8197 30.7097ZM22.0097 46.4597C22.3397 46.4297 22.7197 46.4897 23.0497 46.4597L22.3697 45.2197C21.8697 43.9097 21.9497 42.3797 22.3997 41.0597C22.4797 40.8097 22.6597 40.6097 22.6697 40.3497C20.9797 40.1097 19.3497 39.4097 17.8997 38.5297H17.7597L16.5497 42.5997L13.5997 43.7497C13.6297 43.6797 13.6597 43.6297 13.6597 43.5397C13.6197 42.7697 13.4997 41.9797 13.4697 41.1997C13.4397 40.4897 13.6197 40.4497 14.0997 39.9997C14.9397 39.1997 15.9097 38.4997 16.6797 37.6397C15.0597 36.5497 13.8797 34.9297 12.8697 33.2897C11.2897 34.8597 8.83968 35.5797 6.72968 34.6797C6.59968 35.7897 7.60968 36.7597 7.72968 37.8097C7.87968 39.0797 7.28968 39.9797 7.65968 41.2897C7.96968 42.3897 8.74968 42.5597 9.46968 43.2497C9.98968 43.7497 10.5897 44.5397 10.8497 45.2097C11.2097 46.1397 11.0297 47.2497 12.4797 47.0897C13.3697 46.9897 13.7497 46.8097 14.7397 46.9897C16.5597 47.3097 17.2797 48.6897 19.2597 47.8897C20.2697 47.4797 20.7197 46.6097 21.9997 46.4697L22.0097 46.4597ZM43.6497 34.2897C41.6797 35.2997 39.3397 34.8097 37.6997 33.4097C36.7497 35.0497 35.5097 36.4997 34.0097 37.6597L37.3797 40.2097C37.5997 41.2697 37.3597 42.3697 37.5397 43.4197L34.4697 42.4597L32.9397 38.5097C32.8397 38.4397 31.8897 39.0297 31.6997 39.1197C30.7197 39.5897 29.6697 40.0197 28.5997 40.2097C28.7897 40.9497 29.0597 41.6797 29.0997 42.4497C29.1897 44.1497 28.4097 45.8197 27.0897 46.8597C27.1497 46.9497 27.2097 46.9497 27.3097 46.9597C28.1897 47.0597 29.0497 46.7197 30.0097 46.9097C31.0897 47.1297 31.7497 48.0097 32.9297 48.1497C34.2097 48.2897 34.4497 47.7597 35.4097 47.2397C36.0897 46.8697 37.0597 46.5497 37.8297 46.5097C38.5297 46.4797 39.3597 46.8397 39.9097 46.3197C40.3297 45.9297 40.2197 45.3897 40.3397 44.9197C40.5197 44.1697 41.0497 43.1897 41.5497 42.5997C42.3597 41.6497 43.1997 41.5097 43.3397 40.0397C43.4497 38.9197 42.8097 38.0497 42.9097 36.8997C42.9897 36.0097 43.5397 35.1697 43.6597 34.2797L43.6497 34.2897ZM24.7897 40.6097C24.5497 40.6397 24.1797 41.4997 24.0997 41.7497C23.7297 42.8397 23.7397 44.1697 24.3797 45.1597C24.4897 45.3297 25.0197 45.9597 25.2097 45.9497C27.2297 44.8597 27.8097 42.6297 26.6997 40.6397C26.1997 40.5397 25.7097 40.6597 25.2097 40.6797C25.0597 40.6797 24.8997 40.6097 24.7797 40.6297L24.7897 40.6097Z" fill="#9F7422"/>
<path d="M24.4797 19.1197C31.8597 18.4397 35.6397 27.3897 30.0697 32.1497C25.9397 35.6797 19.4297 33.4897 18.1497 28.2597C17.1097 24.0097 20.0797 19.5297 24.4797 19.1297V19.1197ZM24.7397 20.0097C20.2497 20.3797 17.5597 25.1997 19.4797 29.2697C21.6897 33.9397 28.3697 34.2397 30.9397 29.7397C33.5097 25.2397 29.9897 19.5797 24.7397 20.0097Z" fill="#9F7422"/>
<path d="M18.6399 31.9594L17.3799 32.3394L17.6399 32.9294L17.3599 33.0394L16.6899 31.5894L16.1299 31.7794L16.5599 32.8194L15.3099 33.4794L15.2099 33.0994L16.1299 32.6294L15.1299 30.5594L15.3799 30.4194L15.8799 31.4594L16.4199 31.2094C16.5199 31.0594 15.7799 29.9994 15.7599 29.7794C15.7499 29.6594 15.9599 29.5694 16.0699 29.5694C16.1899 29.8894 17.0499 31.8394 17.1999 31.9394C17.3899 32.0594 17.9599 31.6894 18.2099 31.7194L17.1499 29.5494L17.4199 29.3994L18.6599 31.9794L18.6399 31.9594Z" fill="#9F7422"/>
<path d="M26.6994 16.8397L26.5694 17.2197L28.5194 17.5997L28.5894 17.2897L29.0294 17.3497L28.6494 18.8597C28.3994 18.9197 28.2994 18.6997 28.1494 18.6397C27.9494 18.5597 26.6594 18.2497 26.4594 18.2397C26.2994 18.2397 26.1194 18.4297 25.8994 18.2397L26.1894 16.7197L26.6894 16.8497L26.6994 16.8397ZM28.3994 17.9097L26.4494 17.5297L26.3794 17.8697L28.3094 18.3397C28.4294 18.3197 28.4094 18.0097 28.3994 17.9097Z" fill="#9F7422"/>
<path d="M36.2197 27.6093L35.8696 27.6693C35.6196 28.8593 34.6396 28.6493 34.6396 27.4493C34.6396 26.2493 35.6296 26.0693 35.8496 27.2193H36.2197L36.0896 26.0293H36.4697L36.5296 28.3893L36.6596 28.7293L36.2197 28.7893V27.5893V27.6093ZM35.0896 28.0393C35.5896 28.3493 35.6896 26.9893 35.2796 26.8793C34.8896 26.7793 34.8796 27.9093 35.0896 28.0393Z" fill="#9F7422"/>
<path d="M26.5796 15.1292L27.6396 15.3892L27.7696 14.7592L28.2096 14.9192L27.7696 16.7792L25.8896 16.3292L26.2596 14.4492L26.6996 14.6092L26.5796 15.1292ZM27.5096 15.7092L26.4496 15.4492L26.3296 16.0392C26.3596 16.1692 27.2696 16.3092 27.4596 16.3292L27.5196 15.7092H27.5096Z" fill="#9F7422"/>
<path d="M35.6494 33.1592L34.3994 32.5592L34.5194 32.2192L34.8994 32.3492L35.5894 30.6492L35.3394 30.5792L35.4994 30.1992L36.7194 30.8092C36.7194 31.0692 36.4994 31.1292 36.3994 31.2992C36.2694 31.5092 35.8494 32.3892 35.7694 32.6292C35.7194 32.7792 35.7794 32.9992 35.6594 33.1692L35.6494 33.1592ZM36.2194 30.9592L35.9394 30.8292C35.7594 31.3092 35.2994 31.9192 35.1794 32.3992C35.1294 32.5992 35.2894 32.6192 35.4594 32.5792L36.2194 30.9492V30.9592Z" fill="#9F7422"/>
<path d="M22.9798 14.8193L23.0398 15.1293L21.3398 15.5093L21.6598 16.8993L23.5798 16.2693C23.7098 16.2393 23.7598 16.5193 23.7098 16.5893C23.6198 16.7093 21.6398 17.2593 21.3398 17.3193L20.8398 15.3293L22.9798 14.8193Z" fill="#9F7422"/>
<path d="M31.4798 16.2799C31.8898 16.2399 32.4098 16.5499 32.5798 16.9199C33.1298 18.1099 31.4398 19.1599 30.6498 17.9699C30.2098 17.3099 30.7498 16.3599 31.4798 16.2899V16.2799ZM31.5998 16.6599C30.4698 16.7799 30.7998 18.6399 31.8298 18.0299C32.5498 17.5999 32.3698 16.5799 31.5998 16.6599Z" fill="#9F7422"/>
<path d="M17.5599 17.7192C17.9499 18.6392 19.0899 18.9892 20.0199 19.0392L19.9499 19.4092C19.3599 19.4192 18.7899 19.2292 18.2599 18.9792C18.4099 19.6192 18.4999 20.2192 18.3899 20.8692H18.0099C18.1199 20.1592 18.0499 19.4392 17.7299 18.7892C17.6399 18.5992 17.1299 18.0292 17.1999 17.9192C17.2099 17.8992 17.5399 17.6992 17.5699 17.7192H17.5599Z" fill="#9F7422"/>
<path d="M28.8399 35.05L28.8999 35.36L27.6999 35.64C28.0599 36.01 28.6799 35.84 29.1499 35.8C29.0499 36.51 27.8699 36.01 27.5499 36.07C27.4899 36.08 26.9599 36.5 26.7999 36.57C26.4799 36.72 26.1899 36.83 25.8799 36.62L27.0499 36.05C27.1299 35.94 27.3599 35.71 27.0699 35.76C26.7399 35.82 26.3899 35.96 26.0499 35.99L25.9499 35.67L28.8499 35.04L28.8399 35.05Z" fill="#9F7422"/>
<path d="M28.1995 37.1496C29.6795 36.9896 29.8095 38.0895 28.4595 38.5495C26.1395 39.3295 25.8595 37.3996 28.1995 37.1496ZM26.9595 38.2595C27.1895 38.6295 29.1195 38.2096 28.9995 37.6996C28.8695 37.0996 26.6395 37.7395 26.9595 38.2595Z" fill="#9F7422"/>
<path d="M30.3395 33.6792C31.3295 33.4992 32.0595 34.8692 31.1395 35.5592C30.0795 36.3492 28.7595 34.6792 29.9495 33.8692C30.0695 33.7892 30.1895 33.7092 30.3295 33.6892L30.3395 33.6792ZM30.8995 34.1892C30.2295 33.6192 29.3195 34.6192 30.2295 35.2692C30.9995 35.8192 31.5495 34.7392 30.8995 34.1892Z" fill="#9F7422"/>
<path d="M18.8895 16.21C18.8895 16.29 18.9095 16.36 18.9495 16.43C19.2295 16.84 19.6795 17.25 19.9895 17.66L20.3995 17.31C20.7595 17.45 20.4695 17.79 20.2095 17.85L21.3395 19.27L21.0495 19.55L18.4395 16.5L18.8795 16.22L18.8895 16.21Z" fill="#9F7422"/>
<path d="M31.6797 32.3994L33.3797 34.5694C32.9597 35.1094 32.7997 34.3394 32.4697 34.0994C32.2197 34.2894 31.8697 34.8094 31.7697 34.2894L32.2397 33.8694L31.8997 33.4094L31.3997 33.8494L31.1797 33.6294L31.6797 33.1794L31.3097 32.5894L31.6897 32.3994H31.6797Z" fill="#9F7422"/>
<path d="M24.0599 14.3799L24.3799 15.8899L24.9099 15.7699C25.0199 15.7999 25.0599 16.0299 24.9799 16.0899L24.5199 16.2099L24.7599 17.3099L24.3599 17.4699L23.6299 14.4799L24.0799 14.3799H24.0599Z" fill="#9F7422"/>
<path d="M33.51 25.9097V25.4697C34.74 25.6397 36 25.4697 37.23 25.4997C37.35 25.5797 37.29 25.9097 37.19 25.9097H33.5H33.51Z" fill="#9F7422"/>
<path d="M22.3998 34.8799C22.8798 34.7599 23.8498 34.9499 23.9198 35.5399C24.0398 36.5599 21.9198 36.2999 21.9798 35.4099C21.9898 35.1899 22.1898 34.9399 22.3998 34.8799ZM22.5898 35.1899C22.1598 35.3199 22.4798 35.8099 22.8998 35.8599C24.0298 36.0199 23.4498 34.9199 22.5898 35.1899Z" fill="#9F7422"/>
<path d="M15.4 25.5498C16.53 25.2898 16.5 27.1898 15.81 27.3498C14.65 27.6098 14.67 25.7198 15.4 25.5498ZM15.47 25.9198C15.14 26.0198 15.09 27.0298 15.64 26.9798C16.22 26.9298 16.03 25.7498 15.47 25.9198Z" fill="#9F7422"/>
<path d="M24.4994 38.0094L24.0494 37.9494L24.0894 37.5694L23.3694 37.3694L23.3594 37.0694L24.2394 37.2594L24.6894 35.1094L25.0594 35.2794L24.4994 38.0094Z" fill="#9F7422"/>
<path d="M27.8999 36.3098V36.7498C27.9599 36.8098 29.1999 36.3498 29.4399 36.3698C29.4899 36.3698 29.5399 36.3798 29.5699 36.4298L29.5999 36.6798L25.9499 37.4898L25.8799 37.1798L27.4599 36.8298L27.5099 36.7198L27.3999 36.3598L27.8999 36.2998V36.3098Z" fill="#9F7422"/>
<path d="M14.3496 28.5601V28.1801L17.3096 28.1201V28.5601H15.7996C15.7896 28.8301 15.9196 29.3801 15.4896 29.0201V28.5601H14.3496Z" fill="#9F7422"/>
<path d="M22.3502 17.5898L22.5202 18.3498L25.0002 17.7798V18.0598L22.2002 18.7898L21.9102 17.6898L22.3502 17.5898Z" fill="#9F7422"/>
<path d="M32.05 20.7496C32.09 20.8096 31.95 21.0796 31.84 21.0496L29.62 19.2896C29.53 19.1196 30.17 18.5596 30.23 18.3496C30.94 18.4496 30.35 18.8896 30.1 19.1896L32.05 20.7396V20.7496Z" fill="#9F7422"/>
<path d="M33.8695 30.9699C35.0995 30.7199 34.4795 32.8199 33.6195 32.7099C32.8195 32.6099 33.1895 31.1099 33.8695 30.9699ZM33.7695 31.3499C33.5795 31.4599 33.3095 32.2299 33.6595 32.2799C34.1295 32.3499 34.3795 31.5299 34.1295 31.3599C34.0595 31.3199 33.8295 31.2999 33.7595 31.3499H33.7695Z" fill="#9F7422"/>
<path d="M19.4295 33.8696C20.1195 34.6696 19.2495 35.4096 18.3795 34.6396C17.3595 33.7396 18.5695 32.8896 19.4295 33.8696ZM18.5495 33.7996C17.9595 33.9696 19.0395 35.1096 19.3195 34.3896C19.2795 34.0796 18.8595 33.7096 18.5495 33.7996Z" fill="#9F7422"/>
<path d="M34.1995 18.0896L32.3495 20.2996L32.2295 20.3496L31.9395 20.1596L33.8895 17.7296C33.9695 17.6996 34.2495 17.9996 34.1995 18.0696V18.0896Z" fill="#9F7422"/>
<path d="M19.4499 36.1897L17.5899 34.7997C17.5399 34.7097 17.7399 34.4497 17.8799 34.5797L19.9599 36.2197C19.9799 36.2797 19.3899 37.0697 19.3099 37.1297C19.1199 37.2797 19.0299 37.0997 18.8999 36.9697L19.4599 36.1797L19.4499 36.1897Z" fill="#9F7422"/>
<path d="M29.5398 14.9495L29.0298 17.2195L28.6598 17.1495L28.7698 16.2095L28.0898 16.0795V15.6995L28.9098 15.8895L29.1298 14.9395L29.5398 14.9495Z" fill="#9F7422"/>
<path d="M31.4901 35.8098L31.9601 36.4298L33.7001 35.0198C34.1001 34.9598 33.9501 35.2098 33.7601 35.3998C33.2101 35.9398 32.4201 36.4098 31.8401 36.9398L31.1201 36.0998L31.5001 35.8198L31.4901 35.8098Z" fill="#9F7422"/>
<path d="M14.7296 25.8498V26.2898H13.9096V28.3998C13.9096 28.5698 14.0996 28.6998 13.6596 28.6798L13.5996 25.8398H14.7296V25.8498Z" fill="#9F7422"/>
<path d="M22.2902 37.2595L22.1102 37.9295L22.1602 38.0395L24.4302 38.5095C24.4502 38.6995 24.4502 38.8295 24.2302 38.8095C23.4402 38.7395 22.4802 38.3095 21.6602 38.2595L21.8502 37.1895L22.2902 37.2495V37.2595Z" fill="#9F7422"/>
<path d="M23.9802 36.8701L22.8502 36.7501L22.7602 37.3801H22.3502L22.4802 36.6201L21.4102 36.5601L21.4702 36.1201L23.9502 36.5701C24.1102 36.6101 24.0002 36.7401 23.9902 36.8601L23.9802 36.8701Z" fill="#9F7422"/>
<path d="M33.4395 29.1294C33.4395 29.2794 34.0595 29.5594 34.1695 29.5694C34.4695 29.5894 34.3895 29.2394 34.5095 29.1494L34.7595 29.1894L34.5795 29.7194L35.2395 30.0594L35.1395 30.4394L33.1895 29.5494L33.3095 29.1494L33.4395 29.1094V29.1294Z" fill="#9F7422"/>
<path d="M20.9094 35.1698L21.2794 35.4698L21.1594 35.6498L20.6894 35.3698L20.2394 35.9298L19.8994 35.7098L21.2394 34.0498L21.5294 34.3198L20.9094 35.1698Z" fill="#9F7422"/>
<path d="M16.5399 22.0194C17.0199 22.5794 16.0899 23.3794 15.6499 22.6894C15.2499 22.0794 16.1399 21.5394 16.5399 22.0194Z" fill="#9F7422"/>
<path d="M35.0693 22.6197C34.6193 23.0697 33.8293 22.4697 34.1993 21.9097C34.6493 21.2297 35.6093 22.0797 35.0693 22.6197Z" fill="#9F7422"/>
<path d="M34.5199 28.6893H34.1999L34.1299 26.3893C34.1299 26.2093 34.3999 26.1693 34.4799 26.2893L34.5099 28.6893H34.5199Z" fill="#9F7422"/>
<path d="M16.7399 27.6797H16.4199V25.2197L16.6799 25.2497C16.6799 25.2497 16.7399 25.4797 16.7399 25.4997V27.6697V27.6797Z" fill="#9F7422"/>
<path d="M32.6892 32.5298L32.4692 32.3998L32.4492 32.2598L33.4092 30.2598L33.6092 30.3898L33.6292 30.5298L32.6892 32.5298Z" fill="#9F7422"/>
<path d="M18.5993 32.6692C18.7093 32.6692 20.1293 33.7992 20.2693 33.9492C20.4393 34.1192 20.4293 34.1492 20.2293 34.2892C19.7493 33.8692 18.9993 33.4492 18.5693 32.9992C18.4393 32.8592 18.4293 32.6692 18.5993 32.6592V32.6692Z" fill="#9F7422"/>
<path d="M27.8292 34.7393L27.8992 35.0493L26.7692 35.2993L26.6992 34.9893L27.8292 34.7393Z" fill="#9F7422"/>
<path d="M17.2497 25.8496V27.0496L16.9297 26.9796V25.8496H17.2497Z" fill="#9F7422"/>
<path d="M33.9499 26.9199V28.0599L33.7399 28.0499L33.6299 27.9599V26.9199H33.9499Z" fill="#9F7422"/>
<path d="M20.1492 33.5399C20.1492 33.5399 20.0192 33.5299 19.9892 33.4799L19.1992 32.8199L19.4092 32.6699L20.2392 33.2899L20.1392 33.5399H20.1492Z" fill="#9F7422"/>
<path d="M32.9397 30.6996L32.4997 31.7696L32.1797 31.6496L32.6297 30.6396L32.9397 30.6996Z" fill="#9F7422"/>
<path d="M30.1093 24.46C30.2793 24.63 29.8393 26.37 29.9293 26.63C29.9993 26.83 30.5593 26.7 30.7393 26.73V27.11H28.4693V29.35C28.3593 29.5 27.8993 29.51 27.8993 29.29V27.12H25.7293C25.5993 27.12 25.5993 26.74 25.7293 26.74H29.2593C29.4993 26.42 29.5793 25.68 29.6093 25.26C29.6093 25.12 29.6493 24.95 29.5193 24.85H26.2693V24.47H30.1093V24.46Z" fill="#9F7422"/>
<path d="M23.6094 26.1598C23.8394 26.1298 24.1394 26.2398 24.2994 26.0698V24.2698H24.7994V29.3398C24.6794 29.4898 24.4094 29.4798 24.2994 29.3398V26.6898C24.1294 26.5098 23.8294 26.6198 23.6094 26.5998V29.0898C23.4894 29.2398 23.2194 29.2298 23.1094 29.0898V24.3598C23.2194 24.2198 23.4894 24.2098 23.6094 24.3598V26.1598Z" fill="#9F7422"/>
<path d="M22.3898 24.5894C22.3898 24.5894 22.5398 24.6594 22.5498 24.6994L22.4498 25.0394H21.0998V27.6894H22.3898C22.4498 27.6894 22.7598 27.5194 22.7998 27.5594V27.9994C22.7198 28.0794 20.9598 28.1694 20.7498 28.1294C20.6798 28.1194 20.6298 28.0994 20.5898 28.0394V24.6994L20.6798 24.6094C21.1998 24.6694 21.8898 24.5294 22.3798 24.6094L22.3898 24.5894Z" fill="#9F7422"/>
<path d="M78.1363 18.2938C78.1363 18.0945 78.1031 17.9152 78.0367 17.7559C77.9836 17.5965 77.884 17.4504 77.7379 17.3176C77.5918 17.1848 77.3859 17.0652 77.1203 16.959C76.8547 16.8527 76.5227 16.7465 76.1242 16.6402L76.423 15.923C77.0871 16.0027 77.7445 16.109 78.3953 16.2418C79.0594 16.3613 79.657 16.4875 80.1883 16.6203C80.1617 16.7398 80.1285 16.8859 80.0887 17.0586C80.0621 17.2313 80.0355 17.4039 80.009 17.5766C79.9957 17.7492 79.9824 17.9086 79.9691 18.0547C79.9559 18.2008 79.9492 18.307 79.9492 18.3734V23.4336C80.3344 23.4203 80.7129 23.407 81.0848 23.3938C81.4566 23.3672 81.8219 23.334 82.1805 23.2941V17.4969C82.1805 17.0852 82.0211 16.7531 81.7023 16.5008C81.3836 16.2352 80.7992 15.9961 79.9492 15.7836L80.268 15.0465C80.5867 15.0863 80.9254 15.1395 81.284 15.2059C81.6426 15.2723 81.9945 15.3387 82.3398 15.4051C82.6984 15.4715 83.0371 15.5379 83.3559 15.6043C83.6879 15.6707 83.9801 15.7305 84.2324 15.7836C84.2059 15.9031 84.1793 16.0492 84.1527 16.2219C84.1395 16.3945 84.1195 16.5672 84.093 16.7398C84.0797 16.9125 84.0664 17.0719 84.0531 17.218C84.0398 17.3641 84.0332 17.4703 84.0332 17.5367V28.5734C84.0332 28.9852 84.0199 29.4566 83.9934 29.9879C83.9801 30.5059 83.9535 31.0305 83.9137 31.5617C83.8871 32.093 83.8539 32.5977 83.8141 33.0758C83.7742 33.5672 83.7277 33.9789 83.6746 34.3109L82.3199 34.4902C82.3066 34.2379 82.2867 33.9324 82.2602 33.5738C82.2469 33.2285 82.2336 32.85 82.2203 32.4383C82.207 32.0398 82.1937 31.6348 82.1805 31.223C82.1805 30.798 82.1805 30.393 82.1805 30.0078V24.4098C81.8086 24.423 81.4367 24.4363 81.0648 24.4496C80.7062 24.4629 80.3344 24.4828 79.9492 24.5094V27.8563C79.9492 28.268 79.9359 28.7395 79.9094 29.2707C79.8961 29.7887 79.8695 30.3133 79.8297 30.8445C79.8031 31.3758 79.7633 31.8871 79.7102 32.3785C79.6703 32.8699 79.6238 33.2816 79.5707 33.6137L78.2559 33.773C78.2426 33.5207 78.2293 33.2152 78.216 32.8566C78.2027 32.5113 78.1895 32.1395 78.1762 31.741C78.1629 31.3426 78.1496 30.9375 78.1363 30.5258C78.1363 30.1008 78.1363 29.6957 78.1363 29.3105V26.641C77.2332 26.9863 76.2703 27.3184 75.2477 27.6371C74.2383 27.9559 73.1492 28.2281 71.9805 28.4539C71.2766 28.5867 70.7785 28.5203 70.4863 28.2547C70.1941 27.9758 70.048 27.5176 70.048 26.8801V21.5609C70.048 21.3219 70.0215 21.116 69.9684 20.9434C69.9285 20.7574 69.8422 20.598 69.7094 20.4652C69.5898 20.3324 69.4105 20.2195 69.1715 20.1266C68.9324 20.0203 68.6203 19.9141 68.2352 19.8078L68.5937 19.0906C69.3375 19.2102 70.0879 19.2832 70.8449 19.3098C71.602 19.3363 72.3391 19.3297 73.0562 19.2898C73.7734 19.25 74.4707 19.1902 75.148 19.1105C75.8254 19.0176 76.4562 18.918 77.0406 18.8117L76.7219 20.3258C75.7922 20.2727 74.9355 20.2594 74.152 20.2859C73.3816 20.3125 72.6379 20.359 71.9207 20.4254V26.4617C71.9207 26.6875 71.9605 26.8469 72.0402 26.9398C72.1332 27.0328 72.2328 27.066 72.3391 27.0395C74.2648 26.8004 76.1973 26.3754 78.1363 25.7645V18.2938ZM98.7953 24.3301C98.9281 23.8121 99.0609 23.2609 99.1937 22.6766C99.3266 22.0789 99.4461 21.4879 99.5523 20.9035C99.6719 20.3191 99.7715 19.7547 99.8512 19.2102C99.9309 18.6523 99.9906 18.1477 100.03 17.6961C99.5391 17.6961 99.0078 17.7027 98.4367 17.716C97.8789 17.716 97.3145 17.7227 96.7434 17.7359C96.1855 17.7492 95.6477 17.7691 95.1297 17.7957C94.6117 17.8223 94.1469 17.8488 93.7352 17.8754C93.5359 17.8887 93.2902 17.9086 92.998 17.9352C92.7191 17.9617 92.4203 17.9883 92.1016 18.0148C91.7828 18.0414 91.4641 18.0813 91.1453 18.1344C90.8266 18.1742 90.5344 18.2207 90.2687 18.2738L89.4121 16.6402C89.6645 16.6668 89.9434 16.7 90.2488 16.7398C90.5543 16.7664 90.8531 16.793 91.1453 16.8195C91.4508 16.8328 91.743 16.8461 92.0219 16.8594C92.3008 16.8727 92.5398 16.8793 92.7391 16.8793C93.4562 16.8793 94.2199 16.8727 95.0301 16.8594C95.8535 16.8328 96.6703 16.7996 97.4805 16.7598C98.2906 16.7199 99.0742 16.6668 99.8312 16.6004C100.588 16.534 101.266 16.4543 101.863 16.3613L102.401 16.8594C102.282 17.4438 102.142 18.0613 101.983 18.7121C101.823 19.3496 101.651 19.9871 101.465 20.6246C101.279 21.2621 101.086 21.893 100.887 22.5172C100.688 23.1414 100.482 23.7258 100.27 24.2703C101.159 24.2305 102.062 24.1707 102.979 24.091C103.909 23.998 104.732 23.8984 105.449 23.7922L105.21 25.4457C104.945 25.4324 104.632 25.4191 104.274 25.4059C103.929 25.3926 103.55 25.3859 103.138 25.3859C102.727 25.3727 102.302 25.3594 101.863 25.3461C101.425 25.3328 100.987 25.3262 100.548 25.3262C100.19 25.3262 99.7316 25.3328 99.1738 25.3461C98.6293 25.3461 98.0383 25.3594 97.4008 25.3859V29.7688C97.4008 30.1273 97.3875 30.5059 97.3609 30.9043C97.3477 31.3027 97.3277 31.7012 97.3012 32.0996C97.2746 32.498 97.2414 32.8766 97.2016 33.2352C97.1617 33.607 97.1152 33.9324 97.0621 34.2113L95.6477 34.4504C95.6211 34.2246 95.6012 33.9391 95.5879 33.5937C95.5746 33.2617 95.5613 32.9098 95.548 32.5379C95.548 32.1793 95.5414 31.8141 95.5281 31.4422C95.5281 31.0703 95.5281 30.7383 95.5281 30.4461V25.4258C95.0102 25.4391 94.4988 25.4523 93.9941 25.4656C93.5027 25.4789 93.0379 25.4988 92.5996 25.5254C92.1746 25.5387 91.7895 25.552 91.4441 25.5652C91.0988 25.5785 90.8266 25.5918 90.6273 25.6051C90.1227 25.6449 89.5781 25.6914 88.9937 25.7445C88.4227 25.7844 87.9047 25.8375 87.4398 25.9039L86.7625 24.1707C87.3602 24.2371 87.9977 24.2969 88.675 24.35C89.3656 24.3898 90.0098 24.423 90.6074 24.4496C91.0059 24.4629 91.5371 24.4695 92.2012 24.4695C92.8785 24.4695 93.6023 24.4629 94.3727 24.4496C95.143 24.4363 95.9133 24.423 96.6836 24.4098C97.4672 24.3832 98.1711 24.3566 98.7953 24.3301ZM121.407 24.0711C121.407 24.3102 121.393 24.5891 121.367 24.9078C121.354 25.2266 121.327 25.5453 121.287 25.8641C121.261 26.1828 121.227 26.4883 121.187 26.7805C121.148 27.0594 121.108 27.2852 121.068 27.4578L119.693 27.657C119.667 27.5109 119.647 27.3316 119.634 27.1191C119.62 26.9066 119.6 26.6875 119.574 26.4617C119.561 26.2227 119.547 25.9902 119.534 25.7645C119.534 25.5387 119.534 25.3328 119.534 25.1469V24.6289C118.724 24.8016 117.9 24.9609 117.064 25.107C116.227 25.2398 115.397 25.366 114.573 25.4855C113.763 25.5918 112.98 25.6914 112.223 25.7844C111.479 25.8641 110.795 25.9305 110.171 25.9836C110.025 25.9969 109.819 26.0168 109.553 26.0434C109.287 26.0566 109.002 26.0832 108.696 26.123C108.404 26.1496 108.105 26.1828 107.8 26.2227C107.508 26.2492 107.249 26.2824 107.023 26.3223L106.047 24.6688C106.259 24.7086 106.512 24.7484 106.804 24.7883C107.096 24.8148 107.395 24.8414 107.7 24.868C108.006 24.8813 108.291 24.8945 108.557 24.9078C108.836 24.9078 109.068 24.9078 109.254 24.9078C109.56 24.8945 109.865 24.8813 110.171 24.868C110.476 24.8547 110.775 24.8414 111.067 24.8281V22.4773C111.067 22.2648 111.054 22.0855 111.027 21.9395C111.001 21.7934 110.934 21.6738 110.828 21.5809C110.722 21.4746 110.562 21.3883 110.35 21.3219C110.151 21.2422 109.879 21.1625 109.533 21.0828L109.832 20.3855C110.058 20.3988 110.304 20.4188 110.569 20.4453C110.848 20.4719 111.134 20.5051 111.426 20.5449C111.718 20.5848 112.01 20.6246 112.302 20.6645C112.595 20.7043 112.867 20.7508 113.119 20.8039C113.093 20.9234 113.066 21.0629 113.039 21.2223C113.026 21.3816 113.006 21.541 112.98 21.7004C112.966 21.8465 112.953 21.9926 112.94 22.1387C112.927 22.2715 112.92 22.3777 112.92 22.4574V24.6688C114.129 24.5625 115.284 24.4363 116.386 24.2902C117.489 24.1441 118.538 23.9648 119.534 23.7523V17.4969C119.534 17.0852 119.341 16.7531 118.956 16.5008C118.571 16.2352 117.934 15.9961 117.044 15.7836L117.402 15.0465C117.734 15.0863 118.093 15.1395 118.478 15.2059C118.863 15.259 119.248 15.3254 119.634 15.4051C120.019 15.4715 120.384 15.5379 120.729 15.6043C121.088 15.6707 121.393 15.7238 121.646 15.7637C121.619 15.8832 121.593 16.0293 121.566 16.202C121.539 16.3746 121.513 16.5539 121.486 16.7398C121.46 16.9125 121.44 17.0719 121.427 17.218C121.413 17.3641 121.407 17.4703 121.407 17.5367V21.6605C121.978 21.6207 122.622 21.5609 123.339 21.4813C124.07 21.4016 124.727 21.3086 125.311 21.2023L125.092 22.7762C124.866 22.7629 124.601 22.7563 124.295 22.7563C123.99 22.7563 123.671 22.7563 123.339 22.7563C123.007 22.7563 122.668 22.7563 122.323 22.7563C121.991 22.7563 121.686 22.7563 121.407 22.7563V24.0711ZM114.932 23.3141C114.998 22.9555 115.065 22.5703 115.131 22.1586C115.198 21.7469 115.251 21.3285 115.291 20.9035C115.344 20.4652 115.39 20.0336 115.43 19.6086C115.47 19.1703 115.49 18.752 115.49 18.3535C114.693 18.3535 113.943 18.3734 113.239 18.4133C112.535 18.4531 111.778 18.493 110.968 18.5328C110.569 18.5594 110.111 18.5992 109.593 18.6523C109.088 18.7055 108.59 18.7852 108.099 18.8914L107.202 17.2977C107.734 17.3641 108.285 17.4238 108.856 17.477C109.44 17.5168 109.945 17.5367 110.37 17.5367C111.406 17.5367 112.502 17.5035 113.657 17.4371C114.826 17.3574 116.001 17.2113 117.183 16.9988L117.721 17.5168C117.522 18.6191 117.296 19.6484 117.044 20.6047C116.791 21.5609 116.512 22.4176 116.207 23.1746L114.932 23.3141ZM117.861 27.5176C118.379 27.584 118.857 27.7168 119.295 27.916C119.733 28.1152 120.105 28.3676 120.411 28.673C120.716 28.9652 120.955 29.2973 121.128 29.6691C121.3 30.041 121.387 30.4395 121.387 30.8645C121.387 31.3426 121.274 31.7875 121.048 32.1992C120.836 32.6109 120.53 32.9695 120.132 33.275C119.746 33.5937 119.282 33.8395 118.737 34.0121C118.206 34.1848 117.628 34.2711 117.004 34.2711C116.38 34.2711 115.802 34.1848 115.271 34.0121C114.753 33.8395 114.301 33.5937 113.916 33.275C113.531 32.9695 113.225 32.6109 113 32.1992C112.787 31.7875 112.681 31.3426 112.681 30.8645C112.681 30.4262 112.774 30.0145 112.96 29.6293C113.146 29.2441 113.398 28.9055 113.717 28.6133C114.049 28.3078 114.441 28.0621 114.892 27.8762C115.344 27.677 115.835 27.5508 116.366 27.4977C116.34 27.325 116.267 27.1988 116.147 27.1191C116.028 27.0262 115.815 26.9332 115.51 26.8402L115.848 26.2426C116.008 26.2691 116.18 26.3023 116.366 26.3422C116.566 26.382 116.765 26.4219 116.964 26.4617C117.177 26.5016 117.382 26.5414 117.582 26.5813C117.794 26.6211 117.98 26.6609 118.139 26.7008C118.086 26.807 118.033 26.9266 117.98 27.0594C117.94 27.1922 117.9 27.3449 117.861 27.5176ZM119.414 30.8047C119.414 30.4594 119.348 30.1406 119.215 29.8484C119.096 29.543 118.923 29.284 118.697 29.0715C118.485 28.8457 118.226 28.673 117.92 28.5535C117.628 28.434 117.316 28.3742 116.984 28.3742C116.665 28.3742 116.36 28.434 116.068 28.5535C115.775 28.673 115.516 28.8457 115.291 29.0715C115.078 29.284 114.905 29.543 114.773 29.8484C114.653 30.1406 114.593 30.4594 114.593 30.8047C114.593 31.15 114.653 31.4688 114.773 31.7609C114.905 32.0398 115.078 32.2855 115.291 32.498C115.516 32.7238 115.775 32.8965 116.068 33.016C116.36 33.1355 116.665 33.1953 116.984 33.1953C117.329 33.1953 117.648 33.1355 117.94 33.016C118.232 32.8965 118.485 32.7238 118.697 32.498C118.923 32.2855 119.096 32.0398 119.215 31.7609C119.348 31.4688 119.414 31.15 119.414 30.8047ZM132.882 17.8754C133.426 17.9551 133.924 18.1078 134.376 18.3336C134.841 18.5461 135.232 18.8184 135.551 19.1504C135.883 19.4691 136.136 19.8344 136.308 20.2461C136.494 20.6578 136.587 21.0895 136.587 21.541C136.587 22.0457 136.481 22.5039 136.268 22.9156C136.587 22.9422 136.932 22.9754 137.304 23.0152C137.676 23.0418 137.995 23.0484 138.261 23.0352C138.486 23.0219 138.752 23.0152 139.057 23.0152C139.363 23.002 139.648 22.9953 139.914 22.9953V19.5887C139.316 19.6152 138.705 19.6684 138.081 19.748C137.457 19.8145 136.932 19.9008 136.507 20.007L135.691 18.493C135.823 18.5195 135.996 18.5461 136.209 18.5727C136.434 18.5859 136.673 18.6059 136.926 18.6324C137.178 18.6457 137.43 18.659 137.683 18.6723C137.935 18.6723 138.161 18.6723 138.36 18.6723C138.573 18.659 138.818 18.6523 139.097 18.6523C139.376 18.6391 139.648 18.6324 139.914 18.6324V17.4969C139.914 17.0852 139.715 16.7531 139.316 16.5008C138.931 16.2352 138.3 15.9961 137.424 15.7836L137.782 15.0465C138.101 15.0863 138.453 15.1395 138.838 15.2059C139.223 15.259 139.609 15.3254 139.994 15.4051C140.379 15.4715 140.744 15.5379 141.089 15.6043C141.448 15.6707 141.76 15.7238 142.026 15.7637C141.999 15.8832 141.973 16.0293 141.946 16.202C141.92 16.3746 141.893 16.5539 141.866 16.7398C141.853 16.9125 141.84 17.0719 141.827 17.218C141.813 17.3641 141.807 17.4703 141.807 17.5367V23.1348C141.807 23.3738 141.793 23.6527 141.767 23.9715C141.74 24.277 141.707 24.5891 141.667 24.9078C141.641 25.2266 141.607 25.532 141.568 25.8242C141.528 26.1031 141.488 26.3289 141.448 26.5016L140.093 26.7008C140.067 26.5547 140.04 26.3754 140.014 26.1629C140 25.9504 139.98 25.7313 139.954 25.5055C139.941 25.2797 139.927 25.0539 139.914 24.8281C139.914 24.5891 139.914 24.3766 139.914 24.1906V23.9516C139.303 23.9781 138.666 24.0313 138.002 24.1109C137.351 24.1773 136.8 24.2637 136.348 24.3699L135.93 23.4734C135.545 24.0047 135.007 24.4297 134.316 24.7484C133.639 25.0672 132.862 25.2266 131.985 25.2266C131.321 25.2266 130.704 25.1336 130.132 24.9477C129.575 24.7617 129.09 24.5027 128.678 24.1707C128.266 23.8387 127.948 23.4469 127.722 22.9953C127.496 22.5438 127.383 22.059 127.383 21.541C127.383 21.0629 127.483 20.6113 127.682 20.1863C127.881 19.7613 128.154 19.3828 128.499 19.0508C128.857 18.7188 129.282 18.4465 129.774 18.234C130.265 18.0215 130.803 17.8887 131.387 17.8355C131.361 17.6762 131.288 17.55 131.168 17.457C131.049 17.3641 130.836 17.2711 130.531 17.1781L130.87 16.5805C131.016 16.607 131.188 16.6402 131.387 16.6801C131.587 16.7199 131.786 16.7598 131.985 16.7996C132.198 16.8395 132.404 16.8793 132.603 16.9191C132.802 16.959 132.981 16.9988 133.141 17.0387C133.101 17.1582 133.054 17.291 133.001 17.4371C132.948 17.5699 132.908 17.716 132.882 17.8754ZM134.635 21.4613C134.635 21.0762 134.562 20.7176 134.416 20.3855C134.283 20.0535 134.097 19.768 133.858 19.5289C133.619 19.2766 133.34 19.084 133.021 18.9512C132.702 18.8051 132.364 18.732 132.005 18.732C131.633 18.732 131.281 18.8051 130.949 18.9512C130.63 19.084 130.352 19.2766 130.112 19.5289C129.873 19.768 129.681 20.0535 129.535 20.3855C129.402 20.7176 129.336 21.0762 129.336 21.4613C129.336 21.8465 129.402 22.2051 129.535 22.5371C129.681 22.8559 129.873 23.1348 130.112 23.3738C130.352 23.5996 130.63 23.7789 130.949 23.9117C131.281 24.0445 131.633 24.1109 132.005 24.1109C132.377 24.1109 132.722 24.0445 133.041 23.9117C133.36 23.7789 133.639 23.5996 133.878 23.3738C134.117 23.1348 134.303 22.8559 134.436 22.5371C134.568 22.2051 134.635 21.8465 134.635 21.4613ZM132.643 27.418C133.333 27.418 134.097 27.4047 134.934 27.3781C135.784 27.3516 136.627 27.3184 137.464 27.2785C138.3 27.2254 139.097 27.1723 139.854 27.1191C140.611 27.066 141.249 27.0129 141.767 26.9598C141.714 27.3051 141.674 27.5773 141.647 27.7766C141.634 27.9625 141.627 28.1684 141.627 28.3941V31.243C141.627 31.6281 141.601 32.0797 141.548 32.5977C141.508 33.1156 141.415 33.6004 141.269 34.052L139.914 34.3109C139.887 34.1516 139.861 33.959 139.834 33.7332C139.821 33.5074 139.808 33.2684 139.795 33.016C139.781 32.777 139.768 32.5379 139.755 32.2988C139.741 32.073 139.735 31.8738 139.735 31.7012V28.1949C139.23 28.1684 138.699 28.1617 138.141 28.175C137.583 28.1883 137.019 28.2148 136.448 28.2547C135.877 28.2813 135.305 28.3145 134.734 28.3543C134.177 28.3941 133.639 28.434 133.121 28.4738C132.722 28.5004 132.317 28.5402 131.905 28.5934C131.494 28.6465 131.069 28.7063 130.63 28.7727L129.913 27.1789C130.086 27.2055 130.292 27.232 130.531 27.2586C130.77 27.2852 131.009 27.3117 131.248 27.3383C131.5 27.3648 131.746 27.3848 131.985 27.398C132.237 27.4113 132.457 27.418 132.643 27.418ZM152.266 22.5371C152.996 23.2809 153.8 24.0445 154.676 24.8281C155.553 25.6117 156.462 26.3488 157.405 27.0395L155.951 28.4738C155.287 27.6902 154.596 26.8668 153.879 26.0035C153.162 25.1402 152.432 24.2902 151.688 23.4535C150.997 24.4762 150.194 25.4324 149.277 26.3223C148.361 27.2121 147.305 28.0754 146.11 28.9121L145.532 28.3742C146.316 27.7633 147.033 27.0926 147.684 26.3621C148.334 25.6184 148.912 24.8613 149.417 24.091C149.935 23.3074 150.373 22.5172 150.732 21.7203C151.104 20.9102 151.389 20.1266 151.588 19.3695C151.655 19.157 151.675 19.0176 151.648 18.9512C151.635 18.8848 151.595 18.7984 151.529 18.6922C151.436 18.5859 151.276 18.4664 151.05 18.3336C150.825 18.2008 150.566 18.068 150.273 17.9352L150.652 17.3375C151.196 17.4703 151.794 17.6363 152.445 17.8355C153.096 18.0215 153.68 18.2008 154.198 18.3734C153.946 19.1305 153.66 19.8543 153.341 20.5449C153.036 21.2223 152.677 21.8863 152.266 22.5371ZM156.967 15.0465C157.286 15.0863 157.638 15.1395 158.023 15.2059C158.408 15.259 158.793 15.3254 159.179 15.4051C159.564 15.4715 159.929 15.5379 160.274 15.6043C160.633 15.6707 160.945 15.7238 161.211 15.7637C161.184 15.8832 161.151 16.0293 161.111 16.202C161.084 16.3746 161.058 16.5539 161.031 16.7398C161.018 16.9125 161.005 17.0719 160.991 17.218C160.978 17.3641 160.971 17.4703 160.971 17.5367V28.5734C160.971 28.9852 160.958 29.4633 160.932 30.0078C160.918 30.5391 160.892 31.077 160.852 31.6215C160.825 32.1527 160.792 32.6574 160.752 33.1355C160.712 33.627 160.666 34.0187 160.613 34.3109L159.278 34.4902C159.252 34.2777 159.225 33.9922 159.198 33.6336C159.185 33.275 159.165 32.8898 159.139 32.4781C159.125 32.0797 159.112 31.668 159.099 31.243C159.099 30.8047 159.099 30.393 159.099 30.0078V17.4969C159.099 17.0852 158.9 16.7531 158.501 16.5008C158.116 16.2352 157.485 15.9961 156.609 15.7836L156.967 15.0465ZM179.439 23.6129C179.439 23.852 179.426 24.1309 179.399 24.4496C179.386 24.7551 179.359 25.0672 179.32 25.3859C179.293 25.7047 179.26 26.0102 179.22 26.3023C179.193 26.5813 179.167 26.807 179.14 26.9797L177.726 27.1789C177.699 27.0461 177.679 26.8734 177.666 26.6609C177.653 26.4484 177.633 26.2293 177.606 26.0035C177.593 25.7645 177.58 25.532 177.566 25.3063C177.566 25.0672 177.566 24.8547 177.566 24.6688V17.4969C177.566 17.0852 177.374 16.7531 176.989 16.5008C176.617 16.2352 175.993 15.9961 175.116 15.7836L175.435 15.0465C175.767 15.0863 176.125 15.1395 176.511 15.2059C176.896 15.259 177.281 15.3254 177.666 15.4051C178.051 15.4715 178.416 15.5379 178.762 15.6043C179.12 15.6707 179.426 15.7238 179.678 15.7637C179.652 15.8832 179.618 16.0293 179.579 16.202C179.552 16.3746 179.525 16.5539 179.499 16.7398C179.486 16.9125 179.472 17.0719 179.459 17.218C179.446 17.3641 179.439 17.4703 179.439 17.5367V22.298C180.01 22.2449 180.654 22.1785 181.371 22.0988C182.089 22.0191 182.746 21.9262 183.344 21.8199L183.145 23.4137C182.919 23.4004 182.646 23.3938 182.328 23.3938C182.022 23.3938 181.704 23.3938 181.371 23.3938C181.039 23.3938 180.701 23.3938 180.355 23.3938C180.023 23.3938 179.718 23.3938 179.439 23.3938V23.6129ZM170.136 27.9559C170.826 27.9559 171.603 27.9426 172.466 27.916C173.33 27.8895 174.186 27.8563 175.036 27.8164C175.9 27.7766 176.716 27.7367 177.487 27.6969C178.257 27.6438 178.895 27.5906 179.399 27.5375C179.359 27.8695 179.326 28.1352 179.3 28.3344C179.286 28.5336 179.28 28.7395 179.28 28.952V31.243C179.28 31.6281 179.253 32.0797 179.2 32.5977C179.16 33.1156 179.08 33.6004 178.961 34.052L177.566 34.3109C177.54 34.1516 177.513 33.959 177.487 33.7332C177.473 33.5074 177.46 33.2684 177.447 33.016C177.434 32.777 177.42 32.5379 177.407 32.2988C177.394 32.073 177.387 31.8738 177.387 31.7012V28.7527C176.869 28.7395 176.325 28.7395 175.754 28.7527C175.182 28.766 174.598 28.7859 174 28.8125C173.416 28.8391 172.838 28.8789 172.267 28.932C171.696 28.9719 171.152 29.0117 170.634 29.0516C170.209 29.0781 169.797 29.118 169.398 29.1711C169 29.2242 168.582 29.284 168.143 29.3504L167.366 27.7168C167.566 27.7434 167.778 27.7699 168.004 27.7965C168.243 27.823 168.489 27.8496 168.741 27.8762C168.993 27.9027 169.239 27.9227 169.478 27.9359C169.717 27.9492 169.936 27.9559 170.136 27.9559ZM174.817 23.6727C174.817 24.1109 174.711 24.5293 174.498 24.9277C174.286 25.3129 173.994 25.6516 173.622 25.9438C173.25 26.2227 172.805 26.4484 172.287 26.6211C171.782 26.7938 171.238 26.8801 170.654 26.8801C170.069 26.8801 169.525 26.7938 169.02 26.6211C168.515 26.4484 168.07 26.216 167.685 25.9238C167.313 25.6316 167.021 25.293 166.809 24.9078C166.596 24.5094 166.49 24.0977 166.49 23.6727C166.49 23.1945 166.596 22.7629 166.809 22.3777C167.034 21.9793 167.333 21.634 167.705 21.3418C168.077 21.0496 168.515 20.8238 169.02 20.6645C169.525 20.5051 170.069 20.4254 170.654 20.4254C171.264 20.4254 171.822 20.5184 172.327 20.7043C172.845 20.877 173.29 21.116 173.662 21.4215C174.034 21.7137 174.319 22.059 174.518 22.4574C174.718 22.8426 174.817 23.2477 174.817 23.6727ZM168.462 23.573C168.462 23.8785 168.515 24.1707 168.621 24.4496C168.741 24.7152 168.9 24.9543 169.1 25.1668C169.299 25.366 169.531 25.5254 169.797 25.6449C170.062 25.7645 170.348 25.8242 170.654 25.8242C170.946 25.8242 171.225 25.7711 171.49 25.6648C171.756 25.5453 171.988 25.3859 172.187 25.1867C172.387 24.9875 172.539 24.7484 172.646 24.4695C172.765 24.1906 172.825 23.8918 172.825 23.573C172.825 23.2809 172.765 23.002 172.646 22.7363C172.539 22.4574 172.387 22.2117 172.187 21.9992C172.002 21.7867 171.776 21.6207 171.51 21.5012C171.245 21.3816 170.959 21.3219 170.654 21.3219C170.029 21.3219 169.505 21.5277 169.08 21.9395C168.668 22.3512 168.462 22.8957 168.462 23.573ZM176.232 19.7082C175.926 19.7082 175.554 19.7082 175.116 19.7082C174.678 19.7082 174.2 19.7148 173.682 19.7281C173.177 19.7414 172.652 19.7547 172.108 19.768C171.563 19.7813 171.039 19.7945 170.534 19.8078C170.029 19.8211 169.564 19.8344 169.139 19.8477C168.714 19.8609 168.362 19.8742 168.084 19.8875C167.924 19.9008 167.712 19.9207 167.446 19.9473C167.194 19.9605 166.928 19.9805 166.649 20.007C166.37 20.0336 166.105 20.0602 165.852 20.0867C165.6 20.1133 165.394 20.1398 165.235 20.1664L164.478 18.5328C164.65 18.5727 164.87 18.6125 165.135 18.6523C165.401 18.6789 165.673 18.7121 165.952 18.752C166.231 18.7785 166.503 18.8051 166.769 18.8316C167.034 18.8449 167.26 18.8516 167.446 18.8516C167.898 18.8383 168.495 18.825 169.239 18.8117C169.996 18.7852 170.8 18.752 171.65 18.7121C172.513 18.659 173.37 18.5992 174.22 18.5328C175.083 18.4531 175.84 18.3535 176.491 18.234L176.232 19.7082ZM173.283 17.5168C173.057 17.5168 172.812 17.5168 172.546 17.5168C172.28 17.5168 172.015 17.5234 171.749 17.5367C171.484 17.5367 171.225 17.5434 170.972 17.5566C170.733 17.5566 170.527 17.5566 170.355 17.5566C170.262 17.5566 170.129 17.5633 169.956 17.5766C169.784 17.5766 169.591 17.5832 169.379 17.5965C169.166 17.6098 168.954 17.6297 168.741 17.6563C168.529 17.6695 168.336 17.6895 168.163 17.716L167.346 16.202C167.506 16.2418 167.705 16.2816 167.944 16.3215C168.183 16.3613 168.429 16.4012 168.681 16.441C168.947 16.4676 169.199 16.4941 169.438 16.5207C169.691 16.534 169.903 16.5406 170.076 16.5406C170.235 16.5406 170.454 16.534 170.733 16.5207C171.012 16.5074 171.311 16.4875 171.63 16.4609C171.962 16.4211 172.294 16.3813 172.626 16.3414C172.971 16.3016 173.296 16.2617 173.602 16.2219L173.283 17.5168ZM191.85 16.959C192.342 17.0387 192.793 17.1781 193.205 17.3773C193.63 17.5633 193.995 17.7957 194.301 18.0746C194.606 18.3535 194.839 18.6723 194.998 19.0309C195.171 19.3762 195.257 19.748 195.257 20.1465C195.257 20.6113 195.144 21.0496 194.918 21.4613C194.706 21.8598 194.407 22.2117 194.022 22.5172C193.637 22.8094 193.179 23.0418 192.647 23.2145C192.129 23.3738 191.558 23.4535 190.934 23.4535C190.31 23.4535 189.739 23.3738 189.221 23.2145C188.703 23.0418 188.251 22.8094 187.866 22.5172C187.481 22.2117 187.182 21.8598 186.97 21.4613C186.757 21.0496 186.651 20.6113 186.651 20.1465C186.651 19.7348 186.744 19.343 186.93 18.9711C187.116 18.5992 187.368 18.2672 187.687 17.975C188.019 17.6828 188.411 17.4438 188.862 17.2578C189.327 17.0719 189.832 16.959 190.376 16.9191C190.35 16.773 190.283 16.6602 190.177 16.5805C190.084 16.4875 189.911 16.3945 189.659 16.3016L189.918 15.7637C190.051 15.7902 190.21 15.8234 190.396 15.8633C190.595 15.8898 190.795 15.923 190.994 15.9629C191.193 16.0027 191.386 16.0426 191.571 16.0824C191.771 16.109 191.943 16.1355 192.089 16.1621C192.023 16.3348 191.97 16.4809 191.93 16.6004C191.904 16.7199 191.877 16.8395 191.85 16.959ZM193.404 20.0867C193.404 19.768 193.338 19.4691 193.205 19.1902C193.086 18.898 192.913 18.6523 192.687 18.4531C192.475 18.2406 192.222 18.0746 191.93 17.9551C191.651 17.8355 191.346 17.7758 191.014 17.7758C190.695 17.7758 190.389 17.8355 190.097 17.9551C189.818 18.0746 189.566 18.2406 189.34 18.4531C189.128 18.6523 188.955 18.898 188.822 19.1902C188.689 19.4691 188.623 19.768 188.623 20.0867C188.623 20.432 188.683 20.7441 188.802 21.023C188.935 21.302 189.108 21.541 189.32 21.7402C189.546 21.9395 189.805 22.0988 190.097 22.2184C190.389 22.3246 190.695 22.3777 191.014 22.3777C191.691 22.3777 192.255 22.1719 192.707 21.7602C193.172 21.3352 193.404 20.7773 193.404 20.0867ZM201.273 33.6734C200.463 33.6336 199.607 33.6004 198.704 33.5738C197.814 33.5605 196.93 33.5605 196.054 33.5738C195.191 33.5871 194.361 33.6004 193.564 33.6137C192.78 33.6402 192.096 33.6734 191.512 33.7133C191.034 33.7398 190.695 33.6469 190.496 33.4344C190.296 33.2219 190.197 32.9695 190.197 32.6773V31.243C190.197 30.9508 190.184 30.7184 190.157 30.5457C190.13 30.3598 190.057 30.207 189.938 30.0875C189.818 29.968 189.639 29.8684 189.4 29.7887C189.174 29.709 188.862 29.616 188.464 29.5098L188.762 28.7727C188.962 28.7992 189.214 28.8324 189.52 28.8723C189.825 28.9121 190.144 28.952 190.476 28.9918C190.808 29.0316 191.127 29.0781 191.432 29.1313C191.737 29.1711 191.99 29.2043 192.189 29.2309C192.162 29.3902 192.136 29.6293 192.109 29.948C192.083 30.2535 192.07 30.5324 192.07 30.7848V32.0398C192.07 32.2922 192.109 32.4449 192.189 32.498C192.269 32.5645 192.448 32.6043 192.727 32.6176C193.218 32.6309 193.849 32.6242 194.62 32.5977C195.39 32.5844 196.193 32.5512 197.03 32.498C197.867 32.4582 198.684 32.4051 199.48 32.3387C200.277 32.2723 200.961 32.1926 201.532 32.0996L201.273 33.6734ZM198.445 27.398C198.046 27.4113 197.634 27.4313 197.209 27.4578C196.798 27.4844 196.393 27.5176 195.994 27.5574C195.596 27.5973 195.224 27.6438 194.879 27.6969C194.533 27.7367 194.234 27.7832 193.982 27.8363L193.265 26.3422C193.411 26.3555 193.59 26.3754 193.803 26.402C194.029 26.4285 194.261 26.4551 194.5 26.4816C194.752 26.4949 194.998 26.5082 195.237 26.5215C195.489 26.5215 195.715 26.5215 195.914 26.5215C196.273 26.5082 196.678 26.4949 197.13 26.4816C197.595 26.4551 198.033 26.4285 198.445 26.402V17.4969C198.445 17.0852 198.245 16.7531 197.847 16.5008C197.462 16.2352 196.831 15.9961 195.954 15.7836L196.293 15.0465C196.612 15.0863 196.964 15.1395 197.349 15.2059C197.734 15.259 198.119 15.3254 198.504 15.4051C198.889 15.4715 199.255 15.5379 199.6 15.6043C199.959 15.6707 200.264 15.7238 200.516 15.7637C200.49 15.8832 200.463 16.0293 200.437 16.202C200.423 16.3746 200.404 16.5539 200.377 16.7398C200.364 16.9125 200.35 17.0719 200.337 17.218C200.324 17.3641 200.317 17.4703 200.317 17.5367V25.9836C200.317 26.2227 200.304 26.5281 200.277 26.9C200.264 27.2719 200.237 27.657 200.198 28.0555C200.171 28.4406 200.138 28.8125 200.098 29.1711C200.058 29.5164 200.018 29.782 199.979 29.968L198.564 30.1672C198.551 30.0344 198.537 29.8551 198.524 29.6293C198.511 29.3902 198.498 29.1445 198.484 28.8922C198.484 28.6266 198.478 28.3609 198.464 28.0953C198.451 27.8297 198.445 27.5973 198.445 27.398ZM192.05 25.9438C192.05 26.4352 192.016 26.9066 191.95 27.3582C191.897 27.7965 191.83 28.175 191.751 28.4938L190.396 28.693C190.37 28.5602 190.343 28.3941 190.316 28.1949C190.29 27.9824 190.263 27.7633 190.237 27.5375C190.223 27.2984 190.204 27.066 190.177 26.8402C190.164 26.6145 190.157 26.4086 190.157 26.2227V25.4855C189.865 25.5121 189.579 25.532 189.3 25.5453C189.035 25.5586 188.756 25.5785 188.464 25.6051C188.318 25.6184 188.112 25.6383 187.846 25.6648C187.594 25.6914 187.315 25.7246 187.009 25.7645C186.717 25.791 186.418 25.8242 186.113 25.8641C185.821 25.8906 185.562 25.9238 185.336 25.9637L184.36 24.2504C184.572 24.2902 184.818 24.3234 185.097 24.35C185.376 24.3766 185.661 24.4031 185.954 24.4297C186.259 24.4563 186.551 24.4762 186.83 24.4895C187.109 24.4895 187.361 24.4895 187.587 24.4895C188.57 24.4762 189.506 24.443 190.396 24.3898C191.286 24.3234 192.143 24.2504 192.966 24.1707C193.789 24.091 194.593 23.998 195.377 23.8918C196.16 23.7723 196.944 23.6461 197.727 23.5133V24.3301C195.709 24.7551 193.816 25.0738 192.05 25.2863V25.9438ZM210.318 18.2738C210.876 18.3535 211.38 18.4996 211.832 18.7121C212.284 18.9246 212.675 19.1969 213.007 19.5289C213.339 19.8477 213.592 20.2195 213.764 20.6445C213.95 21.0563 214.043 21.4945 214.043 21.9594C214.043 22.4906 213.924 22.9953 213.685 23.4734C214.004 23.5 214.349 23.5332 214.721 23.573C215.093 23.5996 215.418 23.6063 215.697 23.593C215.923 23.5797 216.182 23.573 216.474 23.573C216.779 23.5598 217.065 23.5531 217.33 23.5531V19.9672C216.733 19.9938 216.122 20.0402 215.498 20.1066C214.887 20.173 214.369 20.2594 213.944 20.3656L213.127 18.8715C213.26 18.898 213.432 18.9246 213.645 18.9512C213.871 18.9645 214.103 18.9844 214.342 19.0109C214.595 19.0242 214.847 19.0375 215.099 19.0508C215.352 19.0508 215.577 19.0508 215.777 19.0508C216.002 19.0375 216.248 19.0309 216.514 19.0309C216.793 19.0176 217.065 19.0109 217.33 19.0109V17.4969C217.33 17.0852 217.131 16.7531 216.733 16.5008C216.348 16.2352 215.717 15.9961 214.84 15.7836L215.199 15.0465C215.518 15.0863 215.87 15.1395 216.255 15.2059C216.64 15.259 217.025 15.3254 217.41 15.4051C217.795 15.4715 218.161 15.5379 218.506 15.6043C218.864 15.6707 219.177 15.7238 219.442 15.7637C219.416 15.8832 219.389 16.0293 219.362 16.202C219.336 16.3746 219.309 16.5539 219.283 16.7398C219.256 16.9125 219.236 17.0719 219.223 17.218C219.21 17.3641 219.203 17.4703 219.203 17.5367V25.7047C219.203 26.0102 219.19 26.3355 219.163 26.6809C219.15 27.0262 219.13 27.3781 219.104 27.7367C219.077 28.082 219.037 28.4141 218.984 28.7328C218.944 29.0383 218.904 29.3039 218.864 29.5297L217.49 29.7488C217.463 29.5895 217.443 29.3703 217.43 29.0914C217.417 28.8125 217.397 28.5137 217.37 28.1949C217.357 27.8629 217.344 27.5375 217.33 27.2188C217.33 26.8867 217.33 26.6012 217.33 26.3621V24.4895C216.733 24.516 216.102 24.5691 215.438 24.6488C214.787 24.7152 214.236 24.8082 213.784 24.9277L213.346 23.9914C212.961 24.5094 212.423 24.9277 211.732 25.2465C211.055 25.552 210.291 25.7047 209.441 25.7047C208.777 25.7047 208.16 25.6117 207.589 25.4258C207.031 25.2266 206.546 24.9609 206.134 24.6289C205.723 24.2969 205.404 23.9051 205.178 23.4535C204.952 22.9887 204.839 22.4906 204.839 21.9594C204.839 21.468 204.939 21.0098 205.138 20.5848C205.337 20.1465 205.61 19.768 205.955 19.4492C206.314 19.1172 206.739 18.8449 207.23 18.6324C207.721 18.4199 208.259 18.2871 208.844 18.234C208.817 18.0613 208.744 17.9285 208.625 17.8355C208.505 17.7293 208.293 17.6297 207.987 17.5367L208.326 16.959C208.472 16.9855 208.645 17.0188 208.844 17.0586C209.043 17.0984 209.242 17.1449 209.441 17.198C209.654 17.2379 209.86 17.2777 210.059 17.3176C210.258 17.3574 210.437 17.3973 210.597 17.4371C210.557 17.5434 210.511 17.6629 210.457 17.7957C210.404 17.9285 210.358 18.0879 210.318 18.2738ZM212.091 21.8598C212.091 21.4746 212.018 21.116 211.872 20.784C211.739 20.452 211.553 20.1664 211.314 19.9273C211.075 19.675 210.796 19.4824 210.477 19.3496C210.159 19.2035 209.82 19.1305 209.461 19.1305C209.089 19.1305 208.737 19.2035 208.405 19.3496C208.087 19.4824 207.808 19.675 207.569 19.9273C207.33 20.1664 207.137 20.452 206.991 20.784C206.858 21.116 206.792 21.4746 206.792 21.8598C206.792 22.2582 206.858 22.6234 206.991 22.9555C207.137 23.2875 207.33 23.573 207.569 23.8121C207.808 24.0512 208.087 24.2371 208.405 24.3699C208.737 24.5027 209.089 24.5691 209.461 24.5691C209.833 24.5691 210.179 24.5027 210.497 24.3699C210.816 24.2371 211.095 24.0512 211.334 23.8121C211.573 23.573 211.759 23.2875 211.892 22.9555C212.025 22.6234 212.091 22.2582 212.091 21.8598ZM220.279 33.5539C219.469 33.5406 218.645 33.534 217.809 33.534C216.972 33.534 216.148 33.5406 215.338 33.5539C214.541 33.5672 213.778 33.5871 213.047 33.6137C212.33 33.6402 211.673 33.6734 211.075 33.7133C210.597 33.7398 210.258 33.6469 210.059 33.4344C209.86 33.2219 209.76 32.9695 209.76 32.6773V30.207C209.76 29.9148 209.747 29.6824 209.72 29.5098C209.694 29.3238 209.621 29.1711 209.501 29.0516C209.382 28.932 209.202 28.8324 208.963 28.7527C208.724 28.673 208.399 28.5801 207.987 28.4738L208.346 27.7367C208.545 27.7633 208.797 27.7965 209.103 27.8363C209.408 27.8762 209.72 27.916 210.039 27.9559C210.371 27.9957 210.69 28.0355 210.995 28.0754C211.314 28.1152 211.573 28.1551 211.772 28.1949C211.746 28.3543 211.719 28.5934 211.693 28.9121C211.666 29.2309 211.653 29.5031 211.653 29.7289V32.0398C211.653 32.2922 211.693 32.4449 211.772 32.498C211.852 32.5645 212.025 32.6043 212.29 32.6176C212.795 32.6309 213.399 32.6176 214.103 32.5777C214.807 32.5512 215.537 32.5047 216.295 32.4383C217.065 32.3852 217.822 32.3187 218.566 32.2391C219.309 32.1594 219.967 32.0797 220.538 32L220.279 33.5539ZM237.591 21.9594C238.162 21.9195 238.806 21.8598 239.523 21.7801C240.241 21.7004 240.898 21.6141 241.496 21.5211L241.296 23.0949C241.071 23.0816 240.798 23.075 240.48 23.075C240.174 23.0617 239.855 23.0551 239.523 23.0551C239.191 23.0551 238.853 23.0551 238.507 23.0551C238.175 23.0551 237.863 23.0551 237.571 23.0551C237.571 23.2941 237.558 23.5664 237.531 23.8719C237.518 24.1641 237.491 24.4563 237.452 24.7484C237.425 25.0406 237.398 25.3129 237.372 25.5652C237.345 25.8176 237.319 26.0168 237.292 26.1629L235.878 26.3621C235.851 26.2293 235.831 26.0566 235.818 25.8441C235.805 25.6316 235.785 25.4125 235.758 25.1867C235.745 24.9477 235.732 24.7152 235.718 24.4895C235.718 24.2504 235.718 24.0379 235.718 23.852V17.4969C235.718 17.0852 235.526 16.7531 235.141 16.5008C234.769 16.2352 234.145 15.9961 233.268 15.7836L233.587 15.0465C233.919 15.0863 234.277 15.1395 234.662 15.2059C235.048 15.259 235.433 15.3254 235.818 15.4051C236.203 15.4715 236.568 15.5379 236.914 15.6043C237.272 15.6707 237.578 15.7238 237.83 15.7637C237.804 15.8832 237.77 16.0293 237.73 16.202C237.704 16.3746 237.677 16.5539 237.651 16.7398C237.637 16.9125 237.624 17.0719 237.611 17.218C237.598 17.3641 237.591 17.4703 237.591 17.5367V21.9594ZM234.384 19.5688C234.078 19.5688 233.706 19.5688 233.268 19.5688C232.83 19.5688 232.352 19.5754 231.834 19.5887C231.329 19.5887 230.804 19.5953 230.26 19.6086C229.715 19.6219 229.191 19.6352 228.686 19.6484C228.181 19.6617 227.716 19.6816 227.291 19.7082C226.866 19.7215 226.514 19.7348 226.236 19.748C226.076 19.7613 225.864 19.7813 225.598 19.8078C225.346 19.8211 225.08 19.841 224.801 19.8676C224.522 19.8941 224.257 19.9207 224.004 19.9473C223.752 19.9738 223.546 20.0004 223.387 20.027L222.63 18.3934C222.802 18.4332 223.021 18.473 223.287 18.5129C223.553 18.5395 223.825 18.566 224.104 18.5926C224.383 18.6191 224.655 18.6457 224.921 18.6723C225.186 18.6855 225.412 18.6922 225.598 18.6922C226.05 18.6922 226.647 18.6855 227.391 18.6723C228.148 18.6457 228.952 18.6125 229.802 18.5727C230.665 18.5195 231.521 18.4598 232.371 18.3934C233.235 18.3137 233.992 18.2141 234.643 18.0945L234.384 19.5688ZM231.435 17.477C231.209 17.477 230.964 17.477 230.698 17.477C230.432 17.477 230.167 17.4836 229.901 17.4969C229.636 17.4969 229.377 17.5035 229.124 17.5168C228.885 17.5168 228.679 17.5168 228.507 17.5168C228.414 17.5168 228.281 17.5234 228.108 17.5367C227.936 17.5367 227.743 17.55 227.53 17.5766C227.318 17.5898 227.105 17.6098 226.893 17.6363C226.68 17.6496 226.488 17.6629 226.315 17.6762L225.498 16.1621C225.658 16.202 225.857 16.2418 226.096 16.2816C226.335 16.3215 226.581 16.3613 226.833 16.4012C227.099 16.4277 227.351 16.4543 227.59 16.4809C227.843 16.4941 228.055 16.5008 228.228 16.5008C228.387 16.5008 228.606 16.4941 228.885 16.4809C229.164 16.4676 229.463 16.4477 229.782 16.4211C230.114 16.3813 230.446 16.3414 230.778 16.3016C231.123 16.2617 231.448 16.2219 231.754 16.182L231.435 17.477ZM232.989 23.4336C232.989 23.8719 232.883 24.2836 232.67 24.6688C232.458 25.0406 232.159 25.3727 231.774 25.6648C231.402 25.957 230.964 26.1895 230.459 26.3621C229.954 26.5215 229.403 26.6012 228.805 26.6012C228.221 26.6012 227.677 26.5148 227.172 26.3422C226.667 26.1695 226.222 25.9438 225.837 25.6648C225.465 25.3727 225.173 25.034 224.961 24.6488C224.748 24.2637 224.642 23.8586 224.642 23.4336C224.642 22.9688 224.748 22.5438 224.961 22.1586C225.173 21.7602 225.465 21.4215 225.837 21.1426C226.222 20.8504 226.667 20.6246 227.172 20.4652C227.677 20.3059 228.221 20.2262 228.805 20.2262C229.416 20.2262 229.981 20.3125 230.499 20.4852C231.017 20.6578 231.455 20.8969 231.814 21.2023C232.186 21.4945 232.471 21.8332 232.67 22.2184C232.883 22.6035 232.989 23.0086 232.989 23.4336ZM226.634 23.334C226.634 23.6395 226.687 23.925 226.793 24.1906C226.913 24.4563 227.072 24.6953 227.271 24.9078C227.471 25.107 227.703 25.2664 227.969 25.3859C228.234 25.5055 228.52 25.5652 228.825 25.5652C229.118 25.5652 229.396 25.5121 229.662 25.4059C229.928 25.2863 230.16 25.127 230.359 24.9277C230.559 24.7285 230.718 24.4961 230.837 24.2305C230.957 23.9516 231.017 23.6527 231.017 23.334C231.017 23.0418 230.957 22.7629 230.837 22.4973C230.731 22.2184 230.579 21.9793 230.379 21.7801C230.18 21.5809 229.948 21.4215 229.682 21.302C229.416 21.1824 229.131 21.1227 228.825 21.1227C228.214 21.1227 227.696 21.3219 227.271 21.7203C226.846 22.1188 226.634 22.6566 226.634 23.334ZM235.738 33.2949C234.822 33.2551 233.859 33.2551 232.85 33.2949C231.854 33.3348 230.831 33.3746 229.782 33.4145C229.755 33.534 229.729 33.6469 229.702 33.7531C229.689 33.8727 229.669 33.9789 229.642 34.0719L228.347 34.291C228.307 34.0254 228.268 33.6934 228.228 33.2949C228.188 32.9098 228.168 32.5312 228.168 32.1594V29.191C228.168 28.9785 228.148 28.7992 228.108 28.6531C228.068 28.4938 227.989 28.3609 227.869 28.2547C227.763 28.1352 227.604 28.0355 227.391 27.9559C227.179 27.8762 226.9 27.7965 226.554 27.7168L226.893 27.0395C227.105 27.066 227.351 27.0926 227.63 27.1191C227.909 27.1457 228.195 27.1855 228.487 27.2387C228.792 27.2785 229.091 27.325 229.383 27.3781C229.689 27.4313 229.968 27.4844 230.22 27.5375C230.193 27.657 230.16 27.7965 230.12 27.9559C230.094 28.102 230.067 28.2547 230.041 28.4141C230.027 28.5602 230.014 28.7063 230.001 28.8523C229.987 28.9852 229.981 29.0914 229.981 29.1711C230.897 29.1445 231.834 29.1113 232.79 29.0715C233.746 29.0316 234.702 28.9652 235.659 28.8723V28.5535C235.659 28.341 235.632 28.1684 235.579 28.0355C235.526 27.8895 235.433 27.7633 235.3 27.657C235.167 27.5375 234.981 27.4379 234.742 27.3582C234.516 27.2652 234.224 27.1723 233.866 27.0793L234.164 26.3422C234.722 26.4086 235.327 26.4883 235.977 26.5813C236.628 26.6742 237.206 26.7738 237.711 26.8801C237.684 26.9996 237.657 27.1391 237.631 27.2984C237.604 27.4578 237.578 27.6172 237.551 27.7766C237.538 27.9359 237.525 28.082 237.511 28.2148C237.498 28.3477 237.491 28.4539 237.491 28.5336V31.0438C237.491 31.6414 237.458 32.1793 237.392 32.6574C237.325 33.1488 237.259 33.5473 237.193 33.8527L235.838 34.052C235.811 33.9457 235.791 33.8262 235.778 33.6934C235.778 33.5738 235.765 33.441 235.738 33.2949ZM235.659 31.9004V30.0875C234.742 30.0609 233.806 30.0543 232.85 30.0676C231.907 30.0809 230.95 30.1207 229.981 30.1871V31.3027C229.981 31.6879 229.961 32.0398 229.921 32.3586C230.837 32.332 231.787 32.2988 232.77 32.259C233.766 32.2324 234.729 32.1859 235.659 32.1195V31.9004ZM248.787 26.8801C248.309 26.8004 247.864 26.6676 247.452 26.4816C247.041 26.2824 246.682 26.0434 246.377 25.7645C246.084 25.4855 245.852 25.1801 245.679 24.848C245.52 24.5027 245.44 24.1375 245.44 23.7523C245.44 23.3008 245.546 22.8824 245.759 22.4973C245.985 22.1121 246.29 21.7801 246.675 21.5012C247.061 21.2223 247.505 21.0098 248.01 20.8637C248.528 20.7043 249.086 20.6246 249.684 20.6246C250.321 20.6246 250.899 20.7109 251.417 20.8836C251.935 21.0563 252.38 21.2887 252.752 21.5809C253.137 21.8598 253.429 22.1918 253.628 22.577C253.841 22.9488 253.947 23.3406 253.947 23.7523C253.947 24.1375 253.861 24.5027 253.688 24.848C253.529 25.1801 253.303 25.4855 253.011 25.7645C252.732 26.0301 252.386 26.2625 251.975 26.4617C251.576 26.6477 251.138 26.7805 250.66 26.8602V28.7129C251.736 28.5934 252.771 28.4539 253.768 28.2945C254.764 28.1352 255.693 27.9625 256.557 27.7766V17.4969C256.557 17.0852 256.357 16.7531 255.959 16.5008C255.574 16.2352 254.943 15.9961 254.066 15.7836L254.405 15.0465C254.724 15.0863 255.076 15.1395 255.461 15.2059C255.846 15.259 256.231 15.3254 256.616 15.4051C257.002 15.4715 257.367 15.5379 257.712 15.6043C258.071 15.6707 258.383 15.7238 258.648 15.7637C258.622 15.8832 258.595 16.0293 258.569 16.202C258.542 16.3746 258.516 16.5539 258.489 16.7398C258.476 16.9125 258.462 17.0719 258.449 17.218C258.436 17.3641 258.429 17.4703 258.429 17.5367V28.5734C258.429 28.9852 258.416 29.4633 258.389 30.0078C258.376 30.5391 258.35 31.077 258.31 31.6215C258.283 32.1527 258.25 32.6574 258.21 33.1355C258.17 33.627 258.124 34.0187 258.071 34.3109L256.716 34.4902C256.689 34.2777 256.67 33.9922 256.656 33.6336C256.643 33.275 256.623 32.8898 256.596 32.4781C256.583 32.0797 256.57 31.668 256.557 31.243C256.557 30.8047 256.557 30.393 256.557 30.0078V28.6531C255.733 28.8391 254.883 29.0117 254.007 29.1711C253.13 29.3305 252.26 29.4766 251.397 29.6094C250.534 29.7422 249.704 29.8551 248.907 29.948C248.11 30.041 247.393 30.1141 246.755 30.1672C246.622 30.1805 246.43 30.2004 246.177 30.227C245.925 30.2402 245.646 30.2668 245.341 30.3066C245.048 30.3332 244.75 30.3664 244.444 30.4063C244.152 30.4328 243.893 30.466 243.667 30.5059L242.651 28.8324C242.864 28.8723 243.116 28.9055 243.408 28.932C243.7 28.9586 243.999 28.9852 244.305 29.0117C244.61 29.0383 244.902 29.0582 245.181 29.0715C245.46 29.0715 245.693 29.0715 245.879 29.0715C246.357 29.0449 246.835 29.0184 247.313 28.9918C247.804 28.952 248.296 28.9188 248.787 28.8922V26.8801ZM247.412 23.6926C247.412 23.9848 247.472 24.2637 247.592 24.5293C247.711 24.7816 247.877 25.0074 248.09 25.2066C248.302 25.4059 248.541 25.5652 248.807 25.6848C249.086 25.8043 249.385 25.8641 249.704 25.8641C249.996 25.8641 250.275 25.8109 250.54 25.7047C250.819 25.5852 251.058 25.4324 251.257 25.2465C251.47 25.0473 251.636 24.8148 251.755 24.5492C251.875 24.2836 251.935 23.998 251.935 23.6926C251.935 23.4137 251.875 23.148 251.755 22.8957C251.636 22.6434 251.477 22.4176 251.277 22.2184C251.078 22.0191 250.839 21.8598 250.56 21.7402C250.295 21.6207 250.009 21.5609 249.704 21.5609C249.385 21.5609 249.086 21.6141 248.807 21.7203C248.541 21.8266 248.302 21.9793 248.09 22.1785C247.877 22.3645 247.711 22.5902 247.592 22.8559C247.472 23.1082 247.412 23.3871 247.412 23.6926ZM252.273 17.6961C252.048 17.6961 251.795 17.6961 251.516 17.6961C251.251 17.6961 250.979 17.7027 250.7 17.716C250.434 17.716 250.175 17.7227 249.923 17.7359C249.67 17.7359 249.458 17.7359 249.285 17.7359C249.192 17.7359 249.059 17.7426 248.887 17.7559C248.714 17.7559 248.521 17.7691 248.309 17.7957C248.11 17.809 247.904 17.8289 247.691 17.8555C247.479 17.8688 247.286 17.8887 247.114 17.9152L246.337 16.4211C246.483 16.4609 246.675 16.5008 246.914 16.5406C247.154 16.5672 247.399 16.6004 247.652 16.6402C247.917 16.6668 248.17 16.6934 248.409 16.7199C248.661 16.7332 248.867 16.7398 249.026 16.7398C249.186 16.7398 249.405 16.7332 249.684 16.7199C249.962 16.7066 250.261 16.6867 250.58 16.6602C250.912 16.6203 251.251 16.5871 251.596 16.5605C251.955 16.5207 252.287 16.4809 252.592 16.441L252.273 17.6961ZM255.182 19.8277C254.89 19.8277 254.518 19.8277 254.066 19.8277C253.628 19.8277 253.15 19.8344 252.632 19.8477C252.127 19.8609 251.603 19.8742 251.058 19.8875C250.514 19.9008 249.989 19.9141 249.484 19.9273C248.98 19.9406 248.515 19.9539 248.09 19.9672C247.665 19.9805 247.313 19.9938 247.034 20.007C246.875 20.0203 246.669 20.0402 246.416 20.0668C246.164 20.0801 245.898 20.1 245.62 20.1266C245.341 20.1531 245.075 20.1797 244.823 20.2063C244.57 20.2328 244.364 20.2594 244.205 20.2859L243.408 18.6523C243.594 18.6922 243.82 18.732 244.086 18.7719C244.364 18.7984 244.643 18.8316 244.922 18.8715C245.201 18.898 245.473 18.9246 245.739 18.9512C246.018 18.9645 246.25 18.9711 246.436 18.9711C246.888 18.9711 247.486 18.9578 248.229 18.9313C248.973 18.9047 249.77 18.8715 250.62 18.8316C251.47 18.7785 252.32 18.7188 253.17 18.6523C254.02 18.5727 254.77 18.473 255.421 18.3535L255.182 19.8277Z" fill="#9F7422"/>
</g>
<defs>
<clipPath id="clip0_170_678">
<rect width="261" height="51" fill="white"/>
</clipPath>
</defs>
</svg>
