<?xml version="1.0" encoding="UTF-8"?>
<svg id="_레이어_1" xmlns="http://www.w3.org/2000/svg" version="1.1" viewBox="0 0 97.5 47.7">
  <!-- Generator: Adobe Illustrator 29.1.0, SVG Export Plug-In . SVG Version: 2.1.0 Build 142)  -->
  <defs>
    <style>
      .st0 {
        fill: #0068b6;
      }

      .st1 {
        fill: #231815;
      }
    </style>
  </defs>
  <path class="st0" d="M22.9,13.9l-1.1-1.1c-.9-.9-1.3-1.6-1.3-2.1s.4-1.2,1.2-1.7c.8-.5,1.7-.7,2.8-.7s1.4.1,2.4.3V.6c-2-.4-3.9-.6-6-.6-4.6,0-8.6,1-11.9,2.9-3.3,1.9-5,4.2-5,6.8s1.1,4.4,3.3,6.6c1.4,1.4,2.1,2.3,2.1,2.7,0,.6-.4,1.2-1.3,1.6-.9.4-1.9.6-3.2.6s-2.3-.3-3.7-.8v7.5c6.2-4.3,14.5-7.8,24.2-10.1-.4-1.3-1.3-2.6-2.6-3.9Z"/>
  <path class="st0" d="M45.1.7h-14v15.9c4.5-.8,9.2-1.4,14-1.8V.7Z"/>
  <path class="st0" d="M97.6.7h-14.6l-12.4,12.3V.7h-14v13.8c4.9,0,9.6.5,14,1.1v-2.1l1.7,2.4c6.8,1,13,2.6,18.4,4.7l-6.1-7.2L97.6.7Z"/>
  <path class="st1" d="M8.3,29.4c4.9,0,9.1-.9,12.5-2.8,3.3-1.8,5-4.1,5.1-6.7-9.6,1.9-18,4.8-24.5,8.6,2.3.6,4.6.9,6.9.9Z"/>
  <path class="st1" d="M34.9,26.5c3,1.8,7.2,2.2,12.5,2.2h5.7v-8.1h-2.5c-2.2,0-3.6-.2-4.4-.6-.6-.4-1-1.1-1.1-2.2-4.9.2-9.6.6-14.1,1.2,0,3.3.9,5.8,3.8,7.5Z"/>
  <path class="st1" d="M81.5,28.7h16,0c-5.9-3.5-13.3-6.3-21.9-8.2l5.9,8.2Z"/>
  <path class="st1" d="M56.5,28.7h14v-9.2c-4.5-.8-9.2-1.3-14-1.6v10.8Z"/>
  <g>
    <path class="st1" d="M0,43.1h1.5v.5c0,.5,0,.8.2,1,.1.2.3.3.6.3s.6,0,.7-.2c.2-.2.3-.4.3-.7s0-.4-.2-.6c-.1-.2-.4-.4-.8-.6l-.8-.5c-.7-.4-1.1-.8-1.3-1.1-.2-.3-.3-.7-.3-1.1,0-.6.2-1.2.6-1.5.4-.4,1-.6,1.7-.6s1.3.2,1.7.6c.4.4.6,1,.6,1.7s0,.1,0,.2c0,0,0,0,0,.1h-1.4v-.2c0-.4,0-.7-.2-.9-.1-.2-.4-.3-.7-.3s-.4,0-.6.2c-.1.1-.2.3-.2.6s.3.7.9,1.1h0s.8.5.8.5c.6.4,1,.7,1.2,1.1.2.3.3.8.3,1.3s-.2,1.2-.6,1.6c-.4.4-1,.6-1.8.6s-1.4-.2-1.8-.6c-.4-.4-.6-1-.6-1.8s0-.2,0-.4H0Z"/>
    <path class="st1" d="M6.1,45.8v-5.8h1.3v.7c.2-.3.4-.5.6-.6.2-.1.5-.2.9-.2s.6,0,.8.2c.2.1.4.3.5.5.2-.3.4-.4.6-.6.2-.1.5-.2.8-.2.5,0,.8.1,1.1.4.2.3.4.6.4,1.1v4.5h-1.4v-3.7c0-.5,0-.8-.1-.9,0-.1-.3-.2-.5-.2s-.4,0-.5.2c0,.2-.2.4-.2.8v3.7h-1.4v-3.8c0-.4,0-.7-.1-.8,0-.1-.3-.2-.5-.2s-.4,0-.5.2c-.1.2-.2.4-.2.8v3.8h-1.4Z"/>
    <path class="st1" d="M17.2,45.8s0-.1,0-.2c0,0,0-.2,0-.4-.1.2-.3.4-.6.5-.2.1-.5.2-.8.2-.5,0-.8-.2-1.1-.5-.3-.3-.4-.7-.4-1.2s.1-.9.3-1.1c.2-.3.7-.6,1.4-.9,0,0,.2,0,.3-.1.5-.2.8-.5.8-.8s0-.3-.2-.4c-.1,0-.3-.1-.5-.1s-.4,0-.6.2c-.1.1-.2.3-.2.6h0c0,.1-1.4.1-1.4.1,0-.6.2-1.1.5-1.4.3-.3.9-.4,1.6-.4s1.3.1,1.6.4c.3.3.4.7.4,1.4v3.3c0,.2,0,.3,0,.4,0,.1,0,.3.2.4h-1.4ZM17,42.7c-.5.3-.9.5-1.1.7-.2.2-.3.4-.3.7s0,.4.2.6c.1.1.3.2.5.2s.4,0,.5-.3c.1-.2.2-.5.2-.9v-.9Z"/>
    <path class="st1" d="M19.6,45.8v-5.8h1.4v1c.2-.4.4-.7.6-.8.2-.2.5-.3.8-.3v1.6c0,0-.1,0-.2,0,0,0-.1,0-.2,0-.3,0-.5,0-.7.3-.2.2-.3.4-.3.7v3.4h-1.4Z"/>
    <path class="st1" d="M25,43.6v.4c0,.3,0,.5,0,.6,0,0,.2.1.3.1s0,0,0,0c0,0,0,0,0,0v1.1c-.2,0-.4,0-.5,0-.1,0-.2,0-.3,0-.5,0-.8,0-1-.3-.2-.2-.3-.5-.3-1.1v-3.5h-.6v-1h.6v-1.6h1.4v1.6h.6v1h-.6v2.7Z"/>
    <path class="st1" d="M30.3,45.8v-7.8h1.5v6.4h2.7v1.3h-4.2Z"/>
    <path class="st1" d="M38.1,43.8h1.3s0,0,0,.1c0,0,0,0,0,.1,0,.7-.2,1.2-.5,1.5-.3.3-.9.5-1.6.5s-.7,0-1-.1c-.3,0-.5-.2-.6-.4-.2-.2-.3-.5-.4-.9,0-.3-.1-1-.1-1.8s0-1.2.1-1.5c0-.3.2-.6.4-.7.2-.2.4-.3.7-.5.3-.1.6-.2,1-.2s.7,0,1,.2c.3.1.5.3.7.5.1.2.3.4.3.7,0,.3,0,.8,0,1.4v.4h-2.8s0,0,0,.1c0,0,0,.1,0,.2,0,.6,0,.9.2,1.2.1.2.3.3.6.3s.4,0,.5-.3c.1-.2.2-.5.2-.9ZM36.7,42.2h1.4v-.2c0-.4,0-.7-.2-.8-.1-.2-.3-.2-.5-.2s-.4,0-.5.2c-.1.2-.2.4-.2.8,0,.1,0,.2,0,.2Z"/>
    <path class="st1" d="M43.5,45.8s0-.1,0-.2c0,0,0-.2,0-.4-.1.2-.3.4-.6.5-.2.1-.5.2-.8.2-.5,0-.8-.2-1.1-.5-.3-.3-.4-.7-.4-1.2s.1-.9.3-1.1c.2-.3.7-.6,1.4-.9,0,0,.2,0,.3-.1.6-.2.8-.5.8-.8s0-.3-.2-.4c-.1,0-.3-.1-.5-.1s-.4,0-.6.2c-.1.1-.2.3-.2.6h0c0,.1-1.4.1-1.4.1,0-.6.2-1.1.5-1.4.3-.3.9-.4,1.6-.4s1.3.1,1.6.4c.3.3.4.7.4,1.4v3.3c0,.2,0,.3,0,.4,0,.1,0,.3.2.4h-1.4ZM43.3,42.7c-.5.3-.9.5-1.1.7-.2.2-.3.4-.3.7s0,.4.1.6c.1.1.3.2.5.2s.4,0,.6-.3c.1-.2.2-.5.2-.9v-.9Z"/>
    <path class="st1" d="M45.9,45.8v-5.8h1.3v1c.2-.4.4-.7.6-.8.2-.2.5-.3.8-.3v1.6c0,0-.1,0-.2,0,0,0-.1,0-.2,0-.3,0-.5,0-.7.3-.2.2-.3.4-.3.7v3.4h-1.4Z"/>
    <path class="st1" d="M49.6,45.8v-5.8h1.4v.6c.2-.2.3-.4.5-.6.2-.1.5-.2.7-.2.4,0,.8.1,1,.4.2.2.4.6.4,1v4.6h-1.4v-3.9c0-.3,0-.6-.1-.7,0-.1-.3-.2-.5-.2s-.4,0-.5.3c0,.2-.2.5-.2.9v3.7h-1.4Z"/>
    <path class="st1" d="M54.9,39.2v-1.2h1.4v1.2h-1.4ZM54.9,45.8v-5.8h1.4v5.8h-1.4Z"/>
    <path class="st1" d="M57.6,45.8v-5.8h1.4v.6c.1-.2.3-.4.5-.6.2-.1.5-.2.7-.2.4,0,.8.1,1,.4.2.2.4.6.4,1v4.6h-1.4v-3.9c0-.3,0-.6-.1-.7,0-.1-.2-.2-.5-.2s-.4,0-.5.3c-.1.2-.2.5-.2.9v3.7h-1.4Z"/>
    <path class="st1" d="M66.9,45.3c0,.5,0,.9,0,1.1,0,.2-.1.4-.3.6-.2.2-.4.4-.7.5-.3.1-.7.2-1.1.2s-1.1-.1-1.4-.3c-.3-.2-.5-.5-.5-1h1.4c0,.1,0,.2.2.2,0,0,.2,0,.4,0,.3,0,.5,0,.6-.2.1-.1.2-.4.2-.8v-.4c-.1.2-.3.4-.5.5-.2.1-.4.2-.7.2-.6,0-1-.2-1.3-.7-.2-.4-.4-1.2-.4-2.4s.1-1.9.4-2.4c.2-.4.7-.7,1.2-.7s.6,0,.8.2c.2.1.4.3.5.6v-.6h1.3v5.4ZM64.8,40.9c-.3,0-.4.1-.5.4,0,.2-.1.8-.1,1.7s0,1.3.1,1.5c0,.2.3.3.5.3s.5-.1.6-.4c.1-.3.2-.9.2-1.9s0-1.1-.2-1.3c-.1-.2-.3-.3-.6-.3Z"/>
    <path class="st1" d="M72,45.8v-7.8h1.5v3.2l1.9-3.2h1.7l-2.1,3.2,2.2,4.5h-1.7l-1.5-3.2-.5.9v2.4h-1.5Z"/>
    <path class="st1" d="M77.5,42.9c0-1.2.2-2,.5-2.4.3-.4.9-.6,1.7-.6s1.4.2,1.7.6c.3.4.5,1.2.5,2.4s-.2,2-.5,2.4c-.3.4-.9.7-1.7.7s-1.4-.2-1.7-.7c-.3-.4-.5-1.2-.5-2.4ZM79,42.8h0c0,1,0,1.6.1,1.8,0,.2.3.3.5.3s.5,0,.6-.3c0-.2.1-.7.1-1.5v-.6c0-.8,0-1.2-.1-1.4,0-.2-.3-.3-.5-.3s-.4,0-.5.3c0,.2-.1.6-.1,1.3v.4Z"/>
    <path class="st1" d="M83,45.8v-5.8h1.3v1c.2-.4.4-.7.6-.8.2-.2.5-.3.8-.3v1.6c0,0-.1,0-.2,0,0,0-.1,0-.2,0-.3,0-.5,0-.7.3-.2.2-.3.4-.3.7v3.4h-1.4Z"/>
    <path class="st1" d="M89.4,43.8h1.3s0,0,0,.1c0,0,0,0,0,.1,0,.7-.2,1.2-.5,1.5-.3.3-.9.5-1.6.5s-.7,0-1-.1c-.3,0-.5-.2-.6-.4-.2-.2-.3-.5-.4-.9,0-.3-.1-1-.1-1.8s0-1.2.1-1.5c0-.3.2-.6.4-.7.2-.2.4-.3.7-.5.3-.1.6-.2,1-.2s.7,0,1,.2c.3.1.5.3.7.5.1.2.3.4.3.7,0,.3,0,.8,0,1.4v.4h-2.8s0,0,0,.1c0,0,0,.1,0,.2,0,.6,0,.9.2,1.2.1.2.3.3.6.3s.4,0,.6-.3c.1-.2.2-.5.2-.9ZM87.9,42.2h1.4v-.2c0-.4,0-.7-.2-.8-.1-.2-.3-.2-.5-.2s-.4,0-.5.2c-.1.2-.2.4-.2.8,0,.1,0,.2,0,.2Z"/>
    <path class="st1" d="M94.8,45.8s0-.1,0-.2c0,0,0-.2,0-.4-.1.2-.3.4-.6.5-.2.1-.5.2-.8.2-.5,0-.8-.2-1.1-.5-.3-.3-.4-.7-.4-1.2s.1-.9.3-1.1c.2-.3.7-.6,1.4-.9,0,0,.2,0,.3-.1.5-.2.8-.5.8-.8s0-.3-.2-.4c-.1,0-.3-.1-.5-.1s-.4,0-.6.2c-.1.1-.2.3-.2.6h0c0,.1-1.4.1-1.4.1,0-.6.2-1.1.5-1.4.3-.3.9-.4,1.6-.4s1.3.1,1.6.4c.3.3.4.7.4,1.4v3.3c0,.2,0,.3,0,.4,0,.1,0,.3.2.4h-1.4ZM94.6,42.7c-.5.3-.9.5-1.1.7-.2.2-.3.4-.3.7s0,.4.1.6c0,.1.3.2.5.2s.4,0,.6-.3c.1-.2.2-.5.2-.9v-.9Z"/>
  </g>
</svg>